<svg width="183" height="145" viewBox="0 0 183 145" fill="none" xmlns="http://www.w3.org/2000/svg">
<path d="M48.7805 44.9796H44.7307V93.7417H48.7805V44.9796Z" fill="black"/>
<path d="M48.7805 44.9796H44.7307V93.7417H48.7805V44.9796Z" fill="url(#paint0_linear_4_2188)" fill-opacity="0.2"/>
<path d="M12.2127 45.7622L41.926 61.911L41.701 69.1477V69.9716L12.1978 54.2211C12.2128 46.9294 12.2277 53.3285 12.2127 45.776V45.7622Z" fill="black"/>
<path d="M12.2127 45.7622L41.926 61.911L41.701 69.1477V69.9716L12.1978 54.2211C12.2128 46.9294 12.2277 53.3285 12.2127 45.776V45.7622Z" fill="url(#paint1_linear_4_2188)" fill-opacity="0.2"/>
<path d="M12.4526 47.0393L41.8808 63.2018C41.8808 63.2018 41.8958 63.1056 41.6858 69.9579L41.5958 69.3812L12.1826 54.2074C12.4526 47.4513 12.1826 53.9053 12.4376 47.0393H12.4526Z" fill="black"/>
<path d="M12.4526 47.0393L41.8808 63.2018C41.8808 63.2018 41.8958 63.1056 41.6858 69.9579L41.5958 69.3812L12.1826 54.2074C12.4526 47.4513 12.1826 53.9053 12.4376 47.0393H12.4526Z" fill="url(#paint2_linear_4_2188)" fill-opacity="0.2"/>
<path d="M41.6858 69.9716L12.1826 54.482L12.2276 53.3285L41.7458 68.6808L41.7009 69.9853L41.6858 69.9716Z" fill="black"/>
<path d="M41.6858 69.9716L12.1826 54.482L12.2276 53.3285L41.7458 68.6808L41.7009 69.9853L41.6858 69.9716Z" fill="url(#paint3_linear_4_2188)" fill-opacity="0.2"/>
<path d="M54.0152 22.624C56.9401 28.1442 55.2002 34.1039 49.6655 37.5643C48.9755 38.0038 48.2406 38.3883 47.2807 38.9238C48.2706 33.7606 47.4156 29.0643 45.2108 24.5602H45.1658L45.7958 14.7007C45.7958 14.7007 45.8258 14.7556 45.9008 14.8105C49.0206 16.9665 52.2453 19.3009 54.0152 22.6103V22.624Z" fill="black"/>
<path d="M54.0152 22.624C56.9401 28.1442 55.2002 34.1039 49.6655 37.5643C48.9755 38.0038 48.2406 38.3883 47.2807 38.9238C48.2706 33.7606 47.4156 29.0643 45.2108 24.5602H45.1658L45.7958 14.7007C45.7958 14.7007 45.8258 14.7556 45.9008 14.8105C49.0206 16.9665 52.2453 19.3009 54.0152 22.6103V22.624Z" fill="url(#paint4_linear_4_2188)" fill-opacity="0.2"/>
<path d="M45.1808 24.574H45.2258C44.8358 29.2291 44.1009 33.9392 43.6809 38.7591C41.641 37.9489 40.1561 36.713 38.8062 35.3398C33.8715 30.3277 34.2464 23.4343 39.7811 18.6006C41.356 17.2274 43.9059 16.0053 45.6758 14.8243C45.7507 14.7694 45.7808 14.7419 45.7958 14.7145L45.1658 24.574H45.1808Z" fill="black"/>
<path d="M45.1808 24.574H45.2258C44.8358 29.2291 44.1009 33.9392 43.6809 38.7591C41.641 37.9489 40.1561 36.713 38.8062 35.3398C33.8715 30.3277 34.2464 23.4343 39.7811 18.6006C41.356 17.2274 43.9059 16.0053 45.6758 14.8243C45.7507 14.7694 45.7808 14.7419 45.7958 14.7145L45.1658 24.574H45.1808Z" fill="url(#paint5_linear_4_2188)" fill-opacity="0.2"/>
<path d="M41.8358 43.73C41.8358 43.73 39.676 43.3317 35.7312 41.9586C32.7314 40.9287 29.6416 40.1322 26.5818 39.2808C24.8269 38.8002 23.057 38.3196 21.2871 37.839C20.1172 37.5231 18.0023 37.3172 17.0423 36.6306C20.1021 38.759 23.297 40.7639 26.7168 42.3705C30.8715 44.3204 35.3412 46.2154 39.841 47.3827C38.716 47.5474 37.6811 47.9869 36.5861 48.3027C36.0162 48.4675 35.4162 48.6048 34.8462 48.8108H33.7963C32.7914 48.6185 31.7415 48.6323 30.7065 48.6323C30.4965 48.6323 30.2865 48.6323 30.0765 48.6048C29.9715 48.5224 29.8216 48.4675 29.6716 48.4537C27.3017 48.1791 24.9469 47.7534 22.652 47.1355C22.412 47.0668 22.202 47.1355 22.067 47.2591C21.3021 47.0394 20.5371 46.8059 19.8021 46.5313C19.5922 46.4489 19.8022 46.5725 19.6522 46.7235V46.751C17.2373 45.5563 14.4025 44.1419 12.1826 42.7001V30.7945C12.1826 30.7945 18.6172 30.3825 28.8316 33.5683C39.031 36.7542 41.8209 43.7574 41.8209 43.7574L41.8358 43.73Z" fill="black"/>
<path d="M41.8358 43.73C41.8358 43.73 39.676 43.3317 35.7312 41.9586C32.7314 40.9287 29.6416 40.1322 26.5818 39.2808C24.8269 38.8002 23.057 38.3196 21.2871 37.839C20.1172 37.5231 18.0023 37.3172 17.0423 36.6306C20.1021 38.759 23.297 40.7639 26.7168 42.3705C30.8715 44.3204 35.3412 46.2154 39.841 47.3827C38.716 47.5474 37.6811 47.9869 36.5861 48.3027C36.0162 48.4675 35.4162 48.6048 34.8462 48.8108H33.7963C32.7914 48.6185 31.7415 48.6323 30.7065 48.6323C30.4965 48.6323 30.2865 48.6323 30.0765 48.6048C29.9715 48.5224 29.8216 48.4675 29.6716 48.4537C27.3017 48.1791 24.9469 47.7534 22.652 47.1355C22.412 47.0668 22.202 47.1355 22.067 47.2591C21.3021 47.0394 20.5371 46.8059 19.8021 46.5313C19.5922 46.4489 19.8022 46.5725 19.6522 46.7235V46.751C17.2373 45.5563 14.4025 44.1419 12.1826 42.7001V30.7945C12.1826 30.7945 18.6172 30.3825 28.8316 33.5683C39.031 36.7542 41.8209 43.7574 41.8209 43.7574L41.8358 43.73Z" fill="url(#paint6_linear_4_2188)" fill-opacity="0.2"/>
<path d="M40.3208 47.5061C40.3208 47.5061 40.3059 47.5061 40.291 47.5061C40.291 47.5061 40.291 47.5061 40.291 47.4788C40.291 47.4788 40.3208 47.4788 40.3356 47.4788L40.3208 47.5061Z" fill="black"/>
<path d="M40.3208 47.5061C40.3208 47.5061 40.3059 47.5061 40.291 47.5061C40.291 47.5061 40.291 47.5061 40.291 47.4788C40.291 47.4788 40.3208 47.4788 40.3356 47.4788L40.3208 47.5061Z" fill="url(#paint7_linear_4_2188)" fill-opacity="0.2"/>
<path d="M48.0606 45.062L46.9207 48.6185L16.9675 36.6992L48.0606 45.062Z" fill="black"/>
<path d="M48.0606 45.062L46.9207 48.6185L16.9675 36.6992L48.0606 45.062Z" fill="url(#paint8_linear_4_2188)" fill-opacity="0.2"/>
<path d="M12.1978 31.8793C12.1978 31.8793 14.8676 31.8382 15.0476 31.8382C16.5925 31.8382 18.1374 31.948 19.6673 32.154C25.2769 32.8955 30.9016 34.3236 35.3864 37.6605C40.0661 41.1484 39.8561 42.8512 39.8561 42.8512L41.641 43.318C41.641 43.318 39.8411 36.301 28.7868 33.0878C17.7324 29.8745 12.1978 30.6847 12.1978 30.6847V31.8793Z" fill="black"/>
<path d="M12.1978 31.8793C12.1978 31.8793 14.8676 31.8382 15.0476 31.8382C16.5925 31.8382 18.1374 31.948 19.6673 32.154C25.2769 32.8955 30.9016 34.3236 35.3864 37.6605C40.0661 41.1484 39.8561 42.8512 39.8561 42.8512L41.641 43.318C41.641 43.318 39.8411 36.301 28.7868 33.0878C17.7324 29.8745 12.1978 30.6847 12.1978 30.6847V31.8793Z" fill="url(#paint9_linear_4_2188)" fill-opacity="0.2"/>
<path d="M12.1978 30.6984C12.1978 30.6984 12.9177 32.3874 14.2076 34.0352C15.4826 35.6831 16.9824 36.713 16.9824 36.713L22.3821 40.0773L26.2069 42.0959C26.2069 42.0959 24.167 45.8584 22.1121 46.4077C20.0423 46.957 18.8423 46.3528 18.8423 46.3528L12.2127 42.6726V30.6984H12.1978Z" fill="black"/>
<path d="M12.1978 30.6984C12.1978 30.6984 12.9177 32.3874 14.2076 34.0352C15.4826 35.6831 16.9824 36.713 16.9824 36.713L22.3821 40.0773L26.2069 42.0959C26.2069 42.0959 24.167 45.8584 22.1121 46.4077C20.0423 46.957 18.8423 46.3528 18.8423 46.3528L12.2127 42.6726V30.6984H12.1978Z" fill="url(#paint10_linear_4_2188)" fill-opacity="0.2"/>
<path d="M32.6565 44.8423C27.5418 42.7825 26.1919 42.0822 26.1919 42.0822C26.1919 42.0822 23.852 44.9933 20.8522 45.8859C19.7572 46.2155 19.1123 46.3665 18.7373 46.2978C18.7373 46.2978 18.7373 46.2979 18.7373 46.3116C20.5222 47.0943 26.8818 49.772 31.1716 49.621C36.2113 49.4562 40.246 47.4651 40.246 47.4651C40.246 47.4651 38.1012 46.9982 32.6715 44.8148L32.6565 44.8423Z" fill="black"/>
<path d="M32.6565 44.8423C27.5418 42.7825 26.1919 42.0822 26.1919 42.0822C26.1919 42.0822 23.852 44.9933 20.8522 45.8859C19.7572 46.2155 19.1123 46.3665 18.7373 46.2978C18.7373 46.2978 18.7373 46.2979 18.7373 46.3116C20.5222 47.0943 26.8818 49.772 31.1716 49.621C36.2113 49.4562 40.246 47.4651 40.246 47.4651C40.246 47.4651 38.1012 46.9982 32.6715 44.8148L32.6565 44.8423Z" fill="url(#paint11_linear_4_2188)" fill-opacity="0.2"/>
<path d="M12.1978 30.1078V30.6846C12.1978 30.6846 16.4125 30.4923 20.4923 31.2064C24.572 31.9205 29.3867 33.2662 29.3867 33.2662C29.3867 33.2662 26.1469 32.044 22.3971 31.1789C18.3774 30.2452 12.2127 30.0941 12.2127 30.0941L12.1978 30.1078Z" fill="black"/>
<path d="M12.1978 30.1078V30.6846C12.1978 30.6846 16.4125 30.4923 20.4923 31.2064C24.572 31.9205 29.3867 33.2662 29.3867 33.2662C29.3867 33.2662 26.1469 32.044 22.3971 31.1789C18.3774 30.2452 12.2127 30.0941 12.2127 30.0941L12.1978 30.1078Z" fill="url(#paint12_linear_4_2188)" fill-opacity="0.2"/>
<path d="M51.5854 43.8948C51.5854 43.8948 53.7453 43.4965 57.6901 42.1233C60.6899 41.0935 63.7797 40.297 66.8396 39.4456C68.5945 38.965 70.3644 38.4844 72.1342 38.0038C73.3042 37.6879 75.419 37.482 76.379 36.7954C73.3192 38.9238 70.1244 40.9287 66.7046 42.5353C62.5498 44.4852 58.0801 46.3802 53.5653 47.5475C54.6903 47.7122 55.7402 48.1517 56.8202 48.4675C57.3901 48.6323 57.9901 48.7696 58.56 48.9756H59.61C60.6149 48.7833 61.6649 48.7971 62.6998 48.7971C62.9098 48.7971 63.1198 48.7971 63.3298 48.7696C63.4348 48.6872 63.5847 48.6323 63.7347 48.6185C66.1046 48.3439 68.4594 47.9182 70.7543 47.3003C70.9943 47.2316 71.2043 47.3003 71.3393 47.4239C72.1042 47.2042 72.8692 46.9707 73.6041 46.6961C73.8141 46.6137 73.6041 46.7373 73.7541 46.8883V46.9158C76.169 45.7211 79.0038 44.3067 81.2237 42.8649V30.9593C81.2237 30.9593 74.7891 30.5473 64.5747 33.7331C54.3753 36.9189 51.5854 43.9222 51.5854 43.9222V43.8948Z" fill="black"/>
<path d="M51.5854 43.8948C51.5854 43.8948 53.7453 43.4965 57.6901 42.1233C60.6899 41.0935 63.7797 40.297 66.8396 39.4456C68.5945 38.965 70.3644 38.4844 72.1342 38.0038C73.3042 37.6879 75.419 37.482 76.379 36.7954C73.3192 38.9238 70.1244 40.9287 66.7046 42.5353C62.5498 44.4852 58.0801 46.3802 53.5653 47.5475C54.6903 47.7122 55.7402 48.1517 56.8202 48.4675C57.3901 48.6323 57.9901 48.7696 58.56 48.9756H59.61C60.6149 48.7833 61.6649 48.7971 62.6998 48.7971C62.9098 48.7971 63.1198 48.7971 63.3298 48.7696C63.4348 48.6872 63.5847 48.6323 63.7347 48.6185C66.1046 48.3439 68.4594 47.9182 70.7543 47.3003C70.9943 47.2316 71.2043 47.3003 71.3393 47.4239C72.1042 47.2042 72.8692 46.9707 73.6041 46.6961C73.8141 46.6137 73.6041 46.7373 73.7541 46.8883V46.9158C76.169 45.7211 79.0038 44.3067 81.2237 42.8649V30.9593C81.2237 30.9593 74.7891 30.5473 64.5747 33.7331C54.3753 36.9189 51.5854 43.9222 51.5854 43.9222V43.8948Z" fill="url(#paint13_linear_4_2188)" fill-opacity="0.2"/>
<path d="M53.1001 47.6709C53.1001 47.6709 53.1149 47.6709 53.1298 47.6709C53.1298 47.6709 53.1298 47.6709 53.1298 47.6436C53.1298 47.6436 53.1001 47.6436 53.0852 47.6436L53.1001 47.6709Z" fill="black"/>
<path d="M53.1001 47.6709C53.1001 47.6709 53.1149 47.6709 53.1298 47.6709C53.1298 47.6709 53.1298 47.6709 53.1298 47.6436C53.1298 47.6436 53.1001 47.6436 53.0852 47.6436L53.1001 47.6709Z" fill="url(#paint14_linear_4_2188)" fill-opacity="0.2"/>
<path d="M45.3457 45.2268L46.4857 48.7833L76.4389 36.864L45.3457 45.2268Z" fill="black"/>
<path d="M45.3457 45.2268L46.4857 48.7833L76.4389 36.864L45.3457 45.2268Z" fill="url(#paint15_linear_4_2188)" fill-opacity="0.2"/>
<path d="M81.2086 32.044C81.2086 32.044 78.5388 32.0028 78.3588 32.0028C76.8139 32.0028 75.269 32.1127 73.7391 32.3187C68.1294 33.0602 62.5048 34.4883 58.02 37.8252C53.3403 41.3131 53.5503 43.0158 53.5503 43.0158L51.7654 43.4827C51.7654 43.4827 53.5653 36.4657 64.6196 33.2524C75.674 30.0392 81.2086 30.8493 81.2086 30.8493V32.044Z" fill="black"/>
<path d="M81.2086 32.044C81.2086 32.044 78.5388 32.0028 78.3588 32.0028C76.8139 32.0028 75.269 32.1127 73.7391 32.3187C68.1294 33.0602 62.5048 34.4883 58.02 37.8252C53.3403 41.3131 53.5503 43.0158 53.5503 43.0158L51.7654 43.4827C51.7654 43.4827 53.5653 36.4657 64.6196 33.2524C75.674 30.0392 81.2086 30.8493 81.2086 30.8493V32.044Z" fill="url(#paint16_linear_4_2188)" fill-opacity="0.2"/>
<path d="M81.2086 30.8633C81.2086 30.8633 80.4887 32.5523 79.1987 34.2001C77.9238 35.848 76.4239 36.8779 76.4239 36.8779L71.0243 40.2422L67.1995 42.2608C67.1995 42.2608 69.2394 46.0233 71.2942 46.5726C73.3641 47.1219 74.564 46.5177 74.564 46.5177L81.1937 42.8375V30.8633H81.2086Z" fill="black"/>
<path d="M81.2086 30.8633C81.2086 30.8633 80.4887 32.5523 79.1987 34.2001C77.9238 35.848 76.4239 36.8779 76.4239 36.8779L71.0243 40.2422L67.1995 42.2608C67.1995 42.2608 69.2394 46.0233 71.2942 46.5726C73.3641 47.1219 74.564 46.5177 74.564 46.5177L81.1937 42.8375V30.8633H81.2086Z" fill="url(#paint17_linear_4_2188)" fill-opacity="0.2"/>
<path d="M60.7499 45.0071C65.8646 42.9473 67.2146 42.2469 67.2146 42.2469C67.2146 42.2469 69.5544 45.1581 72.5542 46.0507C73.6492 46.3803 74.2941 46.5313 74.6691 46.4627C74.6691 46.4627 74.6691 46.4627 74.6691 46.4764C72.8842 47.2591 66.5246 49.9368 62.2348 49.7858C57.1951 49.621 53.1604 47.6299 53.1604 47.6299C53.1604 47.6299 55.3053 47.163 60.7349 44.9796L60.7499 45.0071Z" fill="black"/>
<path d="M60.7499 45.0071C65.8646 42.9473 67.2146 42.2469 67.2146 42.2469C67.2146 42.2469 69.5544 45.1581 72.5542 46.0507C73.6492 46.3803 74.2941 46.5313 74.6691 46.4627C74.6691 46.4627 74.6691 46.4627 74.6691 46.4764C72.8842 47.2591 66.5246 49.9368 62.2348 49.7858C57.1951 49.621 53.1604 47.6299 53.1604 47.6299C53.1604 47.6299 55.3053 47.163 60.7349 44.9796L60.7499 45.0071Z" fill="url(#paint18_linear_4_2188)" fill-opacity="0.2"/>
<path d="M81.2087 30.2726V30.8494C81.2087 30.8494 76.994 30.6571 72.9142 31.3712C68.8345 32.0853 64.0198 33.431 64.0198 33.431C64.0198 33.431 67.2596 32.2088 71.0094 31.3437C75.0291 30.41 81.1938 30.2589 81.1938 30.2589L81.2087 30.2726Z" fill="black"/>
<path d="M81.2087 30.2726V30.8494C81.2087 30.8494 76.994 30.6571 72.9142 31.3712C68.8345 32.0853 64.0198 33.431 64.0198 33.431C64.0198 33.431 67.2596 32.2088 71.0094 31.3437C75.0291 30.41 81.1938 30.2589 81.1938 30.2589L81.2087 30.2726Z" fill="url(#paint19_linear_4_2188)" fill-opacity="0.2"/>
<path d="M12.2277 56.8988L41.9409 73.0475L41.7159 80.2843V81.1082L12.2126 65.3577C12.2276 58.066 12.2427 64.4651 12.2277 56.9125V56.8988Z" fill="black"/>
<path d="M12.2277 56.8988L41.9409 73.0475L41.7159 80.2843V81.1082L12.2126 65.3577C12.2276 58.066 12.2427 64.4651 12.2277 56.9125V56.8988Z" fill="url(#paint20_linear_4_2188)" fill-opacity="0.2"/>
<path d="M12.4677 58.176L41.896 74.3385C41.896 74.3385 41.911 74.2424 41.701 81.0946L41.611 80.5179L12.1978 65.3441C12.4677 58.588 12.1977 65.042 12.4527 58.176H12.4677Z" fill="black"/>
<path d="M12.4677 58.176L41.896 74.3385C41.896 74.3385 41.911 74.2424 41.701 81.0946L41.611 80.5179L12.1978 65.3441C12.4677 58.588 12.1977 65.042 12.4527 58.176H12.4677Z" fill="url(#paint21_linear_4_2188)" fill-opacity="0.2"/>
<path d="M41.701 81.0945L12.1978 65.6049L12.2427 64.4514L41.761 79.8037L41.716 81.1083L41.701 81.0945Z" fill="black"/>
<path d="M41.701 81.0945L12.1978 65.6049L12.2427 64.4514L41.761 79.8037L41.716 81.1083L41.701 81.0945Z" fill="url(#paint22_linear_4_2188)" fill-opacity="0.2"/>
<path d="M81.3135 57.2284L51.7803 73.3772L52.0053 80.6139V81.4378L81.3285 65.6873C81.3135 58.3956 81.2985 64.7947 81.3135 57.2421V57.2284Z" fill="black"/>
<path d="M81.3135 57.2284L51.7803 73.3772L52.0053 80.6139V81.4378L81.3285 65.6873C81.3135 58.3956 81.2985 64.7947 81.3135 57.2421V57.2284Z" fill="url(#paint23_linear_4_2188)" fill-opacity="0.2"/>
<path d="M81.0734 58.5055L51.8252 74.668C51.8252 74.668 51.8102 74.5718 52.0202 81.4241L52.1102 80.8474L81.3434 65.6736C81.0734 58.9175 81.3434 65.3715 81.0885 58.5055H81.0734Z" fill="black"/>
<path d="M81.0734 58.5055L51.8252 74.668C51.8252 74.668 51.8102 74.5718 52.0202 81.4241L52.1102 80.8474L81.3434 65.6736C81.0734 58.9175 81.3434 65.3715 81.0885 58.5055H81.0734Z" fill="url(#paint24_linear_4_2188)" fill-opacity="0.2"/>
<path d="M52.0202 81.4242L81.3435 65.9346L81.2985 64.7811L51.9602 80.1334L52.0052 81.438L52.0202 81.4242Z" fill="black"/>
<path d="M52.0202 81.4242L81.3435 65.9346L81.2985 64.7811L51.9602 80.1334L52.0052 81.438L52.0202 81.4242Z" fill="url(#paint25_linear_4_2188)" fill-opacity="0.2"/>
<path d="M81.4186 45.4053L51.7053 61.554L51.9303 68.7908V69.6146L81.4335 53.8641C81.4185 46.5725 81.4036 52.9716 81.4186 45.419V45.4053Z" fill="black"/>
<path d="M81.4186 45.4053L51.7053 61.554L51.9303 68.7908V69.6146L81.4335 53.8641C81.4185 46.5725 81.4036 52.9716 81.4186 45.419V45.4053Z" fill="url(#paint26_linear_4_2188)" fill-opacity="0.2"/>
<path d="M81.1787 46.696L51.7505 62.8585C51.7505 62.8585 51.7355 62.7624 51.9455 69.6146L52.0355 69.0379L81.4487 53.8641C81.1787 47.108 81.4487 53.562 81.1937 46.696H81.1787Z" fill="black"/>
<path d="M81.1787 46.696L51.7505 62.8585C51.7505 62.8585 51.7355 62.7624 51.9455 69.6146L52.0355 69.0379L81.4487 53.8641C81.1787 47.108 81.4487 53.562 81.1937 46.696H81.1787Z" fill="url(#paint27_linear_4_2188)" fill-opacity="0.2"/>
<path d="M51.9304 69.6147L81.4336 54.1251L81.3886 52.9579L51.8704 68.3102L51.9154 69.6147H51.9304Z" fill="black"/>
<path d="M51.9304 69.6147L81.4336 54.1251L81.3886 52.9579L51.8704 68.3102L51.9154 69.6147H51.9304Z" fill="url(#paint28_linear_4_2188)" fill-opacity="0.2"/>
<path d="M53.7754 57.0087C55.0204 57.0087 56.0103 56.0887 56.0103 54.9489C56.0103 53.8092 55.0054 52.8892 53.7754 52.8892C52.5455 52.8892 51.5405 53.8092 51.5405 54.9489C51.5405 56.0887 52.5455 57.0087 53.7754 57.0087Z" fill="black"/>
<path d="M53.7754 57.0087C55.0204 57.0087 56.0103 56.0887 56.0103 54.9489C56.0103 53.8092 55.0054 52.8892 53.7754 52.8892C52.5455 52.8892 51.5405 53.8092 51.5405 54.9489C51.5405 56.0887 52.5455 57.0087 53.7754 57.0087Z" fill="url(#paint29_linear_4_2188)" fill-opacity="0.2"/>
<path d="M53.7753 55.6493C54.1953 55.6493 54.5253 55.3335 54.5253 54.9627C54.5253 54.592 54.1803 54.2761 53.7753 54.2761C53.3704 54.2761 53.0254 54.592 53.0254 54.9627C53.0254 55.3335 53.3704 55.6493 53.7753 55.6493Z" fill="black"/>
<path d="M53.7753 55.6493C54.1953 55.6493 54.5253 55.3335 54.5253 54.9627C54.5253 54.592 54.1803 54.2761 53.7753 54.2761C53.3704 54.2761 53.0254 54.592 53.0254 54.9627C53.0254 55.3335 53.3704 55.6493 53.7753 55.6493Z" fill="url(#paint30_linear_4_2188)" fill-opacity="0.2"/>
<path d="M27.8567 28.4464C29.1016 28.4464 30.0916 27.5263 30.0916 26.3866C30.0916 25.2468 29.0866 24.3268 27.8567 24.3268C26.6268 24.3268 25.6218 25.2468 25.6218 26.3866C25.6218 27.5263 26.6268 28.4464 27.8567 28.4464Z" fill="black"/>
<path d="M27.8567 28.4464C29.1016 28.4464 30.0916 27.5263 30.0916 26.3866C30.0916 25.2468 29.0866 24.3268 27.8567 24.3268C26.6268 24.3268 25.6218 25.2468 25.6218 26.3866C25.6218 27.5263 26.6268 28.4464 27.8567 28.4464Z" fill="url(#paint31_linear_4_2188)" fill-opacity="0.2"/>
<path d="M27.8566 27.0868C28.2766 27.0868 28.6066 26.771 28.6066 26.4002C28.6066 26.0295 28.2616 25.7136 27.8566 25.7136C27.4517 25.7136 27.1067 26.0295 27.1067 26.4002C27.1067 26.771 27.4517 27.0868 27.8566 27.0868Z" fill="black"/>
<path d="M27.8566 27.0868C28.2766 27.0868 28.6066 26.771 28.6066 26.4002C28.6066 26.0295 28.2616 25.7136 27.8566 25.7136C27.4517 25.7136 27.1067 26.0295 27.1067 26.4002C27.1067 26.771 27.4517 27.0868 27.8566 27.0868Z" fill="url(#paint32_linear_4_2188)" fill-opacity="0.2"/>
<path d="M38.5961 57.6679C39.2111 57.6679 39.7211 57.2148 39.7211 56.638C39.7211 56.0613 39.2261 55.6082 38.5961 55.6082C37.9662 55.6082 37.4712 56.0613 37.4712 56.638C37.4712 57.2148 37.9662 57.6679 38.5961 57.6679Z" fill="black"/>
<path d="M38.5961 57.6679C39.2111 57.6679 39.7211 57.2148 39.7211 56.638C39.7211 56.0613 39.2261 55.6082 38.5961 55.6082C37.9662 55.6082 37.4712 56.0613 37.4712 56.638C37.4712 57.2148 37.9662 57.6679 38.5961 57.6679Z" fill="url(#paint33_linear_4_2188)" fill-opacity="0.2"/>
<path d="M58.395 52.5321C58.8149 52.5321 59.1449 52.2163 59.1449 51.8455C59.1449 51.4748 58.8 51.1589 58.395 51.1589C57.99 51.1589 57.645 51.4748 57.645 51.8455C57.645 52.2163 57.99 52.5321 58.395 52.5321Z" fill="black"/>
<path d="M58.395 52.5321C58.8149 52.5321 59.1449 52.2163 59.1449 51.8455C59.1449 51.4748 58.8 51.1589 58.395 51.1589C57.99 51.1589 57.645 51.4748 57.645 51.8455C57.645 52.2163 57.99 52.5321 58.395 52.5321Z" fill="url(#paint34_linear_4_2188)" fill-opacity="0.2"/>
<path d="M65.5345 28.4188C67.5894 28.4188 69.2542 26.8946 69.2542 24.9996C69.2542 23.1046 67.5894 21.5803 65.5345 21.5803C63.4796 21.5803 61.8147 23.1046 61.8147 24.9996C61.8147 26.8946 63.4796 28.4188 65.5345 28.4188Z" fill="black"/>
<path d="M65.5345 28.4188C67.5894 28.4188 69.2542 26.8946 69.2542 24.9996C69.2542 23.1046 67.5894 21.5803 65.5345 21.5803C63.4796 21.5803 61.8147 23.1046 61.8147 24.9996C61.8147 26.8946 63.4796 28.4188 65.5345 28.4188Z" fill="url(#paint35_linear_4_2188)" fill-opacity="0.2"/>
<path d="M65.5346 26.1531C66.2245 26.1531 66.7945 25.6451 66.7945 24.9997C66.7945 24.3543 66.2395 23.8462 65.5346 23.8462C64.8296 23.8462 64.2747 24.3543 64.2747 24.9997C64.2747 25.6451 64.8296 26.1531 65.5346 26.1531Z" fill="black"/>
<path d="M65.5346 26.1531C66.2245 26.1531 66.7945 25.6451 66.7945 24.9997C66.7945 24.3543 66.2395 23.8462 65.5346 23.8462C64.8296 23.8462 64.2747 24.3543 64.2747 24.9997C64.2747 25.6451 64.8296 26.1531 65.5346 26.1531Z" fill="url(#paint36_linear_4_2188)" fill-opacity="0.2"/>
<path d="M46.6357 97.1746L0.783447 72.9378V24.4504L46.6357 0.213501L92.488 24.4504V72.9378L46.6357 97.1746ZM6.07813 70.1365L46.6357 91.5857L87.1933 70.1365V27.2379L46.6357 5.78866L6.07813 27.2379V70.1365Z" fill="black"/>
<path d="M46.6357 97.1746L0.783447 72.9378V24.4504L46.6357 0.213501L92.488 24.4504V72.9378L46.6357 97.1746ZM6.07813 70.1365L46.6357 91.5857L87.1933 70.1365V27.2379L46.6357 5.78866L6.07813 27.2379V70.1365Z" fill="url(#paint37_linear_4_2188)" fill-opacity="0.2"/>
<path d="M138.715 92.1625H134.666V140.925H138.715V92.1625Z" fill="black"/>
<path d="M138.715 92.1625H134.666V140.925H138.715V92.1625Z" fill="url(#paint38_linear_4_2188)" fill-opacity="0.2"/>
<path d="M102.147 92.9452L131.861 109.094L131.636 116.331V117.155L102.132 101.404C102.147 94.1124 102.162 100.511 102.147 92.9589V92.9452Z" fill="black"/>
<path d="M102.147 92.9452L131.861 109.094L131.636 116.331V117.155L102.132 101.404C102.147 94.1124 102.162 100.511 102.147 92.9589V92.9452Z" fill="url(#paint39_linear_4_2188)" fill-opacity="0.2"/>
<path d="M102.387 94.2223L131.816 110.385C131.816 110.385 131.831 110.289 131.621 117.141L131.531 116.564L102.117 101.39C102.387 94.6342 102.117 101.088 102.372 94.2223H102.387Z" fill="black"/>
<path d="M102.387 94.2223L131.816 110.385C131.816 110.385 131.831 110.289 131.621 117.141L131.531 116.564L102.117 101.39C102.387 94.6342 102.117 101.088 102.372 94.2223H102.387Z" fill="url(#paint40_linear_4_2188)" fill-opacity="0.2"/>
<path d="M131.636 117.155L102.132 101.665L102.177 100.511L131.696 115.864L131.651 117.168L131.636 117.155Z" fill="black"/>
<path d="M131.636 117.155L102.132 101.665L102.177 100.511L131.696 115.864L131.651 117.168L131.636 117.155Z" fill="url(#paint41_linear_4_2188)" fill-opacity="0.2"/>
<path d="M143.965 69.8069C146.89 75.3271 145.15 81.2868 139.615 84.7472C138.925 85.1866 138.19 85.5711 137.23 86.1067C138.22 80.9435 137.365 76.2471 135.16 71.7431H135.115L135.745 61.8835C135.745 61.8835 135.775 61.9385 135.85 61.9934C138.97 64.1493 142.195 66.4837 143.965 69.7931V69.8069Z" fill="black"/>
<path d="M143.965 69.8069C146.89 75.3271 145.15 81.2868 139.615 84.7472C138.925 85.1866 138.19 85.5711 137.23 86.1067C138.22 80.9435 137.365 76.2471 135.16 71.7431H135.115L135.745 61.8835C135.745 61.8835 135.775 61.9385 135.85 61.9934C138.97 64.1493 142.195 66.4837 143.965 69.7931V69.8069Z" fill="url(#paint42_linear_4_2188)" fill-opacity="0.2"/>
<path d="M135.131 71.7569H135.176C134.786 76.412 134.051 81.122 133.631 85.942C131.591 85.1318 130.106 83.8959 128.756 82.5227C123.821 77.5106 124.196 70.6171 129.731 65.7835C131.306 64.4103 133.856 63.1881 135.625 62.0072C135.7 61.9523 135.73 61.9248 135.745 61.8973L135.115 71.7569H135.131Z" fill="black"/>
<path d="M135.131 71.7569H135.176C134.786 76.412 134.051 81.122 133.631 85.942C131.591 85.1318 130.106 83.8959 128.756 82.5227C123.821 77.5106 124.196 70.6171 129.731 65.7835C131.306 64.4103 133.856 63.1881 135.625 62.0072C135.7 61.9523 135.73 61.9248 135.745 61.8973L135.115 71.7569H135.131Z" fill="url(#paint43_linear_4_2188)" fill-opacity="0.2"/>
<path d="M131.771 90.8991C131.771 90.8991 129.611 90.5009 125.666 89.1277C122.666 88.0979 119.576 87.3014 116.517 86.45C114.762 85.9694 112.992 85.4888 111.222 85.0082C110.052 84.6923 107.937 84.4863 106.977 83.7998C110.037 85.9282 113.232 87.9331 116.652 89.5397C120.806 91.4896 125.276 93.3846 129.776 94.5518C128.651 94.7166 127.616 95.1561 126.521 95.4719C125.951 95.6367 125.351 95.774 124.781 95.98H123.731C122.726 95.7877 121.676 95.8014 120.641 95.8014C120.431 95.8014 120.221 95.8015 120.011 95.774C119.906 95.6916 119.756 95.6367 119.606 95.6229C117.237 95.3483 114.882 94.9226 112.587 94.3047C112.347 94.236 112.137 94.3047 112.002 94.4282C111.237 94.2085 110.472 93.9751 109.737 93.7005C109.527 93.6181 109.737 93.7417 109.587 93.8927V93.9202C107.172 92.7255 104.337 91.3111 102.117 89.8692V77.9637C102.117 77.9637 108.552 77.5517 118.766 80.7375C128.966 83.9233 131.756 90.9266 131.756 90.9266L131.771 90.8991Z" fill="black"/>
<path d="M131.771 90.8991C131.771 90.8991 129.611 90.5009 125.666 89.1277C122.666 88.0979 119.576 87.3014 116.517 86.45C114.762 85.9694 112.992 85.4888 111.222 85.0082C110.052 84.6923 107.937 84.4863 106.977 83.7998C110.037 85.9282 113.232 87.9331 116.652 89.5397C120.806 91.4896 125.276 93.3846 129.776 94.5518C128.651 94.7166 127.616 95.1561 126.521 95.4719C125.951 95.6367 125.351 95.774 124.781 95.98H123.731C122.726 95.7877 121.676 95.8014 120.641 95.8014C120.431 95.8014 120.221 95.8015 120.011 95.774C119.906 95.6916 119.756 95.6367 119.606 95.6229C117.237 95.3483 114.882 94.9226 112.587 94.3047C112.347 94.236 112.137 94.3047 112.002 94.4282C111.237 94.2085 110.472 93.9751 109.737 93.7005C109.527 93.6181 109.737 93.7417 109.587 93.8927V93.9202C107.172 92.7255 104.337 91.3111 102.117 89.8692V77.9637C102.117 77.9637 108.552 77.5517 118.766 80.7375C128.966 83.9233 131.756 90.9266 131.756 90.9266L131.771 90.8991Z" fill="url(#paint44_linear_4_2188)" fill-opacity="0.2"/>
<path d="M130.256 94.6892C130.256 94.6892 130.241 94.6892 130.226 94.6892C130.226 94.6892 130.226 94.6892 130.226 94.6617C130.226 94.6617 130.256 94.6617 130.271 94.6617L130.256 94.6892Z" fill="black"/>
<path d="M130.256 94.6892C130.256 94.6892 130.241 94.6892 130.226 94.6892C130.226 94.6892 130.226 94.6892 130.226 94.6617C130.226 94.6617 130.256 94.6617 130.271 94.6617L130.256 94.6892Z" fill="url(#paint45_linear_4_2188)" fill-opacity="0.2"/>
<path d="M138.01 92.2449L136.87 95.8015L106.917 83.8822L138.01 92.2449Z" fill="black"/>
<path d="M138.01 92.2449L136.87 95.8015L106.917 83.8822L138.01 92.2449Z" fill="url(#paint46_linear_4_2188)" fill-opacity="0.2"/>
<path d="M102.132 79.0622C102.132 79.0622 104.802 79.021 104.982 79.021C106.527 79.021 108.072 79.1309 109.602 79.3369C115.212 80.0784 120.836 81.5065 125.321 84.8433C130.001 88.3312 129.791 90.034 129.791 90.034L131.576 90.5009C131.576 90.5009 129.776 83.4839 118.721 80.2706C107.667 77.0574 102.132 77.8675 102.132 77.8675V79.0622Z" fill="black"/>
<path d="M102.132 79.0622C102.132 79.0622 104.802 79.021 104.982 79.021C106.527 79.021 108.072 79.1309 109.602 79.3369C115.212 80.0784 120.836 81.5065 125.321 84.8433C130.001 88.3312 129.791 90.034 129.791 90.034L131.576 90.5009C131.576 90.5009 129.776 83.4839 118.721 80.2706C107.667 77.0574 102.132 77.8675 102.132 77.8675V79.0622Z" fill="url(#paint47_linear_4_2188)" fill-opacity="0.2"/>
<path d="M102.132 77.8812C102.132 77.8812 102.852 79.5702 104.142 81.2181C105.417 82.8659 106.917 83.8958 106.917 83.8958L112.317 87.2601L116.141 89.2787C116.141 89.2787 114.102 93.0413 112.047 93.5906C109.977 94.1398 108.777 93.5356 108.777 93.5356L102.147 89.8555V77.8812H102.132Z" fill="black"/>
<path d="M102.132 77.8812C102.132 77.8812 102.852 79.5702 104.142 81.2181C105.417 82.8659 106.917 83.8958 106.917 83.8958L112.317 87.2601L116.141 89.2787C116.141 89.2787 114.102 93.0413 112.047 93.5906C109.977 94.1398 108.777 93.5356 108.777 93.5356L102.147 89.8555V77.8812H102.132Z" fill="url(#paint48_linear_4_2188)" fill-opacity="0.2"/>
<path d="M122.591 92.0251C117.476 89.9654 116.126 89.265 116.126 89.265C116.126 89.265 113.787 92.1762 110.787 93.0688C109.692 93.3984 109.047 93.5494 108.672 93.4807C108.672 93.4807 108.672 93.4807 108.672 93.4945C110.457 94.2772 116.816 96.9549 121.106 96.8039C126.146 96.6391 130.181 94.6479 130.181 94.6479C130.181 94.6479 128.036 94.1811 122.606 91.9977L122.591 92.0251Z" fill="black"/>
<path d="M122.591 92.0251C117.476 89.9654 116.126 89.265 116.126 89.265C116.126 89.265 113.787 92.1762 110.787 93.0688C109.692 93.3984 109.047 93.5494 108.672 93.4807C108.672 93.4807 108.672 93.4807 108.672 93.4945C110.457 94.2772 116.816 96.9549 121.106 96.8039C126.146 96.6391 130.181 94.6479 130.181 94.6479C130.181 94.6479 128.036 94.1811 122.606 91.9977L122.591 92.0251Z" fill="url(#paint49_linear_4_2188)" fill-opacity="0.2"/>
<path d="M102.132 77.2908V77.8676C102.132 77.8676 106.347 77.6753 110.427 78.3894C114.507 79.1034 119.321 80.4492 119.321 80.4492C119.321 80.4492 116.081 79.227 112.332 78.3619C108.312 77.4282 102.147 77.2771 102.147 77.2771L102.132 77.2908Z" fill="black"/>
<path d="M102.132 77.2908V77.8676C102.132 77.8676 106.347 77.6753 110.427 78.3894C114.507 79.1034 119.321 80.4492 119.321 80.4492C119.321 80.4492 116.081 79.227 112.332 78.3619C108.312 77.4282 102.147 77.2771 102.147 77.2771L102.132 77.2908Z" fill="url(#paint50_linear_4_2188)" fill-opacity="0.2"/>
<path d="M141.52 91.0777C141.52 91.0777 143.68 90.6795 147.625 89.3063C150.624 88.2764 153.714 87.48 156.774 86.6286C158.529 86.148 160.299 85.6673 162.069 85.1867C163.239 84.8709 165.354 84.6649 166.314 83.9783C163.254 86.1068 160.059 88.1116 156.639 89.7183C152.484 91.6682 148.015 93.5632 143.5 94.7304C144.625 94.8952 145.675 95.3346 146.755 95.6505C147.325 95.8153 147.925 95.9526 148.495 96.1586H149.545C150.549 95.9663 151.599 95.98 152.634 95.98C152.844 95.98 153.054 95.98 153.264 95.9526C153.369 95.8702 153.519 95.8152 153.669 95.8015C156.039 95.5269 158.394 95.1012 160.689 94.4833C160.929 94.4146 161.139 94.4833 161.274 94.6068C162.039 94.3871 162.804 94.1537 163.539 93.879C163.749 93.7967 163.539 93.9202 163.689 94.0713V94.0988C166.104 92.9041 168.938 91.4897 171.158 90.0478V78.1423C171.158 78.1423 164.724 77.7303 154.509 80.9161C144.31 84.1019 141.52 91.1052 141.52 91.1052V91.0777Z" fill="black"/>
<path d="M141.52 91.0777C141.52 91.0777 143.68 90.6795 147.625 89.3063C150.624 88.2764 153.714 87.48 156.774 86.6286C158.529 86.148 160.299 85.6673 162.069 85.1867C163.239 84.8709 165.354 84.6649 166.314 83.9783C163.254 86.1068 160.059 88.1116 156.639 89.7183C152.484 91.6682 148.015 93.5632 143.5 94.7304C144.625 94.8952 145.675 95.3346 146.755 95.6505C147.325 95.8153 147.925 95.9526 148.495 96.1586H149.545C150.549 95.9663 151.599 95.98 152.634 95.98C152.844 95.98 153.054 95.98 153.264 95.9526C153.369 95.8702 153.519 95.8152 153.669 95.8015C156.039 95.5269 158.394 95.1012 160.689 94.4833C160.929 94.4146 161.139 94.4833 161.274 94.6068C162.039 94.3871 162.804 94.1537 163.539 93.879C163.749 93.7967 163.539 93.9202 163.689 94.0713V94.0988C166.104 92.9041 168.938 91.4897 171.158 90.0478V78.1423C171.158 78.1423 164.724 77.7303 154.509 80.9161C144.31 84.1019 141.52 91.1052 141.52 91.1052V91.0777Z" fill="url(#paint51_linear_4_2188)" fill-opacity="0.2"/>
<path d="M143.035 94.8538C143.035 94.8538 143.05 94.8538 143.065 94.8538C143.065 94.8538 143.065 94.8539 143.065 94.8265C143.065 94.8265 143.035 94.8265 143.02 94.8265L143.035 94.8538Z" fill="black"/>
<path d="M143.035 94.8538C143.035 94.8538 143.05 94.8538 143.065 94.8538C143.065 94.8538 143.065 94.8539 143.065 94.8265C143.065 94.8265 143.035 94.8265 143.02 94.8265L143.035 94.8538Z" fill="url(#paint52_linear_4_2188)" fill-opacity="0.2"/>
<path d="M135.295 92.4096L136.435 95.9662L166.389 84.0469L135.295 92.4096Z" fill="black"/>
<path d="M135.295 92.4096L136.435 95.9662L166.389 84.0469L135.295 92.4096Z" fill="url(#paint53_linear_4_2188)" fill-opacity="0.2"/>
<path d="M171.158 79.2269C171.158 79.2269 168.488 79.1857 168.308 79.1857C166.763 79.1857 165.219 79.2956 163.689 79.5015C158.079 80.2431 152.454 81.6712 147.97 85.0081C143.29 88.496 143.5 90.1987 143.5 90.1987L141.715 90.6656C141.715 90.6656 143.515 83.6486 154.569 80.4353C165.624 77.222 171.158 78.0322 171.158 78.0322V79.2269Z" fill="black"/>
<path d="M171.158 79.2269C171.158 79.2269 168.488 79.1857 168.308 79.1857C166.763 79.1857 165.219 79.2956 163.689 79.5015C158.079 80.2431 152.454 81.6712 147.97 85.0081C143.29 88.496 143.5 90.1987 143.5 90.1987L141.715 90.6656C141.715 90.6656 143.515 83.6486 154.569 80.4353C165.624 77.222 171.158 78.0322 171.158 78.0322V79.2269Z" fill="url(#paint54_linear_4_2188)" fill-opacity="0.2"/>
<path d="M171.158 78.046C171.158 78.046 170.438 79.735 169.148 81.3829C167.874 83.0307 166.374 84.0606 166.374 84.0606L160.974 87.4249L157.149 89.4435C157.149 89.4435 159.189 93.2061 161.244 93.7553C163.314 94.3046 164.514 93.7004 164.514 93.7004L171.143 90.0203V78.046H171.158Z" fill="black"/>
<path d="M171.158 78.046C171.158 78.046 170.438 79.735 169.148 81.3829C167.874 83.0307 166.374 84.0606 166.374 84.0606L160.974 87.4249L157.149 89.4435C157.149 89.4435 159.189 93.2061 161.244 93.7553C163.314 94.3046 164.514 93.7004 164.514 93.7004L171.143 90.0203V78.046H171.158Z" fill="url(#paint55_linear_4_2188)" fill-opacity="0.2"/>
<path d="M150.7 92.1899C155.814 90.1301 157.164 89.4298 157.164 89.4298C157.164 89.4298 159.504 92.341 162.504 93.2335C163.599 93.5631 164.244 93.7141 164.619 93.6455C164.619 93.6455 164.619 93.6455 164.619 93.6592C162.834 94.4419 156.474 97.1197 152.184 96.9686C147.145 96.8038 143.11 94.8127 143.11 94.8127C143.11 94.8127 145.255 94.3458 150.685 92.1624L150.7 92.1899Z" fill="black"/>
<path d="M150.7 92.1899C155.814 90.1301 157.164 89.4298 157.164 89.4298C157.164 89.4298 159.504 92.341 162.504 93.2335C163.599 93.5631 164.244 93.7141 164.619 93.6455C164.619 93.6455 164.619 93.6455 164.619 93.6592C162.834 94.4419 156.474 97.1197 152.184 96.9686C147.145 96.8038 143.11 94.8127 143.11 94.8127C143.11 94.8127 145.255 94.3458 150.685 92.1624L150.7 92.1899Z" fill="url(#paint56_linear_4_2188)" fill-opacity="0.2"/>
<path d="M171.158 77.4555V78.0322C171.158 78.0322 166.944 77.84 162.864 78.5541C158.784 79.2681 153.969 80.6138 153.969 80.6138C153.969 80.6138 157.209 79.3917 160.959 78.5266C164.979 77.5928 171.143 77.4418 171.143 77.4418L171.158 77.4555Z" fill="black"/>
<path d="M171.158 77.4555V78.0322C171.158 78.0322 166.944 77.84 162.864 78.5541C158.784 79.2681 153.969 80.6138 153.969 80.6138C153.969 80.6138 157.209 79.3917 160.959 78.5266C164.979 77.5928 171.143 77.4418 171.143 77.4418L171.158 77.4555Z" fill="url(#paint57_linear_4_2188)" fill-opacity="0.2"/>
<path d="M102.162 104.082L131.875 120.231L131.65 127.467V128.291L102.147 112.541C102.162 105.249 102.177 111.648 102.162 104.096V104.082Z" fill="black"/>
<path d="M102.162 104.082L131.875 120.231L131.65 127.467V128.291L102.147 112.541C102.162 105.249 102.177 111.648 102.162 104.096V104.082Z" fill="url(#paint58_linear_4_2188)" fill-opacity="0.2"/>
<path d="M102.402 105.359L131.831 121.521C131.831 121.521 131.846 121.425 131.636 128.277L131.546 127.701L102.132 112.527C102.402 105.771 102.132 112.225 102.387 105.359H102.402Z" fill="black"/>
<path d="M102.402 105.359L131.831 121.521C131.831 121.521 131.846 121.425 131.636 128.277L131.546 127.701L102.132 112.527C102.402 105.771 102.132 112.225 102.387 105.359H102.402Z" fill="url(#paint59_linear_4_2188)" fill-opacity="0.2"/>
<path d="M131.636 128.277L102.132 112.788L102.177 111.634L131.696 126.987L131.651 128.291L131.636 128.277Z" fill="black"/>
<path d="M131.636 128.277L102.132 112.788L102.177 111.634L131.696 126.987L131.651 128.291L131.636 128.277Z" fill="url(#paint60_linear_4_2188)" fill-opacity="0.2"/>
<path d="M171.263 104.411L141.73 120.56L141.955 127.797V128.621L171.278 112.87C171.263 105.578 171.248 111.978 171.263 104.425V104.411Z" fill="black"/>
<path d="M171.263 104.411L141.73 120.56L141.955 127.797V128.621L171.278 112.87C171.263 105.578 171.248 111.978 171.263 104.425V104.411Z" fill="url(#paint61_linear_4_2188)" fill-opacity="0.2"/>
<path d="M171.008 105.688L141.76 121.851C141.76 121.851 141.745 121.755 141.955 128.607L142.045 128.03L171.278 112.857C171.008 106.1 171.278 112.554 171.023 105.688H171.008Z" fill="black"/>
<path d="M171.008 105.688L141.76 121.851C141.76 121.851 141.745 121.755 141.955 128.607L142.045 128.03L171.278 112.857C171.008 106.1 171.278 112.554 171.023 105.688H171.008Z" fill="url(#paint62_linear_4_2188)" fill-opacity="0.2"/>
<path d="M141.955 128.607L171.278 113.117L171.233 111.964L141.895 127.316L141.94 128.621L141.955 128.607Z" fill="black"/>
<path d="M141.955 128.607L171.278 113.117L171.233 111.964L141.895 127.316L141.94 128.621L141.955 128.607Z" fill="url(#paint63_linear_4_2188)" fill-opacity="0.2"/>
<path d="M171.353 92.5881L141.64 108.737L141.865 115.974V116.798L171.368 101.047C171.353 93.7554 171.338 100.154 171.353 92.6019V92.5881Z" fill="black"/>
<path d="M171.353 92.5881L141.64 108.737L141.865 115.974V116.798L171.368 101.047C171.353 93.7554 171.338 100.154 171.353 92.6019V92.5881Z" fill="url(#paint64_linear_4_2188)" fill-opacity="0.2"/>
<path d="M171.113 93.8789L141.685 110.041C141.685 110.041 141.67 109.945 141.88 116.797L141.97 116.221L171.383 101.047C171.113 94.2909 171.383 100.745 171.128 93.8789H171.113Z" fill="black"/>
<path d="M171.113 93.8789L141.685 110.041C141.685 110.041 141.67 109.945 141.88 116.797L141.97 116.221L171.383 101.047C171.113 94.2909 171.383 100.745 171.128 93.8789H171.113Z" fill="url(#paint65_linear_4_2188)" fill-opacity="0.2"/>
<path d="M141.88 116.798L171.383 101.308L171.338 100.141L141.82 115.493L141.865 116.798H141.88Z" fill="black"/>
<path d="M141.88 116.798L171.383 101.308L171.338 100.141L141.82 115.493L141.865 116.798H141.88Z" fill="url(#paint66_linear_4_2188)" fill-opacity="0.2"/>
<path d="M143.725 104.192C144.97 104.192 145.96 103.272 145.96 102.132C145.96 100.992 144.955 100.072 143.725 100.072C142.495 100.072 141.49 100.992 141.49 102.132C141.49 103.272 142.495 104.192 143.725 104.192Z" fill="black"/>
<path d="M143.725 104.192C144.97 104.192 145.96 103.272 145.96 102.132C145.96 100.992 144.955 100.072 143.725 100.072C142.495 100.072 141.49 100.992 141.49 102.132C141.49 103.272 142.495 104.192 143.725 104.192Z" fill="url(#paint67_linear_4_2188)" fill-opacity="0.2"/>
<path d="M143.725 102.832C144.145 102.832 144.475 102.516 144.475 102.146C144.475 101.775 144.13 101.459 143.725 101.459C143.32 101.459 142.975 101.775 142.975 102.146C142.975 102.516 143.32 102.832 143.725 102.832Z" fill="black"/>
<path d="M143.725 102.832C144.145 102.832 144.475 102.516 144.475 102.146C144.475 101.775 144.13 101.459 143.725 101.459C143.32 101.459 142.975 101.775 142.975 102.146C142.975 102.516 143.32 102.832 143.725 102.832Z" fill="url(#paint68_linear_4_2188)" fill-opacity="0.2"/>
<path d="M117.792 75.6292C119.036 75.6292 120.026 74.7092 120.026 73.5694C120.026 72.4297 119.021 71.5096 117.792 71.5096C116.562 71.5096 115.557 72.4297 115.557 73.5694C115.557 74.7092 116.562 75.6292 117.792 75.6292Z" fill="black"/>
<path d="M117.792 75.6292C119.036 75.6292 120.026 74.7092 120.026 73.5694C120.026 72.4297 119.021 71.5096 117.792 71.5096C116.562 71.5096 115.557 72.4297 115.557 73.5694C115.557 74.7092 116.562 75.6292 117.792 75.6292Z" fill="url(#paint69_linear_4_2188)" fill-opacity="0.2"/>
<path d="M117.791 74.2698C118.211 74.2698 118.541 73.954 118.541 73.5832C118.541 73.2124 118.196 72.8966 117.791 72.8966C117.386 72.8966 117.042 73.2124 117.042 73.5832C117.042 73.954 117.386 74.2698 117.791 74.2698Z" fill="black"/>
<path d="M117.791 74.2698C118.211 74.2698 118.541 73.954 118.541 73.5832C118.541 73.2124 118.196 72.8966 117.791 72.8966C117.386 72.8966 117.042 73.2124 117.042 73.5832C117.042 73.954 117.386 74.2698 117.791 74.2698Z" fill="url(#paint70_linear_4_2188)" fill-opacity="0.2"/>
<path d="M128.546 104.851C129.161 104.851 129.671 104.398 129.671 103.821C129.671 103.244 129.176 102.791 128.546 102.791C127.916 102.791 127.421 103.244 127.421 103.821C127.421 104.398 127.916 104.851 128.546 104.851Z" fill="black"/>
<path d="M128.546 104.851C129.161 104.851 129.671 104.398 129.671 103.821C129.671 103.244 129.176 102.791 128.546 102.791C127.916 102.791 127.421 103.244 127.421 103.821C127.421 104.398 127.916 104.851 128.546 104.851Z" fill="url(#paint71_linear_4_2188)" fill-opacity="0.2"/>
<path d="M148.345 99.7151C148.765 99.7151 149.095 99.3993 149.095 99.0285C149.095 98.6578 148.75 98.3419 148.345 98.3419C147.94 98.3419 147.595 98.6578 147.595 99.0285C147.595 99.3993 147.94 99.7151 148.345 99.7151Z" fill="black"/>
<path d="M148.345 99.7151C148.765 99.7151 149.095 99.3993 149.095 99.0285C149.095 98.6578 148.75 98.3419 148.345 98.3419C147.94 98.3419 147.595 98.6578 147.595 99.0285C147.595 99.3993 147.94 99.7151 148.345 99.7151Z" fill="url(#paint72_linear_4_2188)" fill-opacity="0.2"/>
<path d="M155.469 75.6018C157.524 75.6018 159.189 74.0776 159.189 72.1826C159.189 70.2876 157.524 68.7633 155.469 68.7633C153.414 68.7633 151.749 70.2876 151.749 72.1826C151.749 74.0776 153.414 75.6018 155.469 75.6018Z" fill="black"/>
<path d="M155.469 75.6018C157.524 75.6018 159.189 74.0776 159.189 72.1826C159.189 70.2876 157.524 68.7633 155.469 68.7633C153.414 68.7633 151.749 70.2876 151.749 72.1826C151.749 74.0776 153.414 75.6018 155.469 75.6018Z" fill="url(#paint73_linear_4_2188)" fill-opacity="0.2"/>
<path d="M155.469 73.336C156.159 73.336 156.729 72.828 156.729 72.1826C156.729 71.5372 156.174 71.0291 155.469 71.0291C154.764 71.0291 154.209 71.5372 154.209 72.1826C154.209 72.828 154.764 73.336 155.469 73.336Z" fill="black"/>
<path d="M155.469 73.336C156.159 73.336 156.729 72.828 156.729 72.1826C156.729 71.5372 156.174 71.0291 155.469 71.0291C154.764 71.0291 154.209 71.5372 154.209 72.1826C154.209 72.828 154.764 73.336 155.469 73.336Z" fill="url(#paint74_linear_4_2188)" fill-opacity="0.2"/>
<path d="M136.57 144.358L90.718 120.121V71.6332L136.57 47.3964L182.423 71.6332V120.121L136.57 144.358ZM96.0127 117.319L136.57 138.769L177.128 117.319V74.4208L136.57 52.9715L96.0127 74.4208V117.319Z" fill="black"/>
<path d="M136.57 144.358L90.718 120.121V71.6332L136.57 47.3964L182.423 71.6332V120.121L136.57 144.358ZM96.0127 117.319L136.57 138.769L177.128 117.319V74.4208L136.57 52.9715L96.0127 74.4208V117.319Z" fill="url(#paint75_linear_4_2188)" fill-opacity="0.2"/>
<defs>
<linearGradient id="paint0_linear_4_2188" x1="46.7556" y1="44.9796" x2="46.7556" y2="85.9143" gradientUnits="userSpaceOnUse">
<stop/>
<stop offset="1" stop-color="#EBEBEB"/>
</linearGradient>
<linearGradient id="paint1_linear_4_2188" x1="27.0619" y1="45.7622" x2="27.0619" y2="66.0854" gradientUnits="userSpaceOnUse">
<stop/>
<stop offset="1" stop-color="#EBEBEB"/>
</linearGradient>
<linearGradient id="paint2_linear_4_2188" x1="27.0318" y1="47.0393" x2="27.0318" y2="66.2789" gradientUnits="userSpaceOnUse">
<stop/>
<stop offset="1" stop-color="#EBEBEB"/>
</linearGradient>
<linearGradient id="paint3_linear_4_2188" x1="26.9642" y1="53.3285" x2="26.9642" y2="67.3115" gradientUnits="userSpaceOnUse">
<stop/>
<stop offset="1" stop-color="#EBEBEB"/>
</linearGradient>
<linearGradient id="paint4_linear_4_2188" x1="50.2922" y1="14.7007" x2="50.2922" y2="35.0354" gradientUnits="userSpaceOnUse">
<stop/>
<stop offset="1" stop-color="#EBEBEB"/>
</linearGradient>
<linearGradient id="paint5_linear_4_2188" x1="40.5735" y1="14.7145" x2="40.5735" y2="34.8994" gradientUnits="userSpaceOnUse">
<stop/>
<stop offset="1" stop-color="#EBEBEB"/>
</linearGradient>
<linearGradient id="paint6_linear_4_2188" x1="27.0092" y1="30.7771" x2="27.0092" y2="45.916" gradientUnits="userSpaceOnUse">
<stop/>
<stop offset="1" stop-color="#EBEBEB"/>
</linearGradient>
<linearGradient id="paint7_linear_4_2188" x1="40.3133" y1="47.4788" x2="40.3133" y2="47.5017" gradientUnits="userSpaceOnUse">
<stop/>
<stop offset="1" stop-color="#EBEBEB"/>
</linearGradient>
<linearGradient id="paint8_linear_4_2188" x1="32.5141" y1="36.6992" x2="32.5141" y2="46.7052" gradientUnits="userSpaceOnUse">
<stop/>
<stop offset="1" stop-color="#EBEBEB"/>
</linearGradient>
<linearGradient id="paint9_linear_4_2188" x1="26.9194" y1="30.5936" x2="26.9194" y2="41.2755" gradientUnits="userSpaceOnUse">
<stop/>
<stop offset="1" stop-color="#EBEBEB"/>
</linearGradient>
<linearGradient id="paint10_linear_4_2188" x1="19.2023" y1="30.6984" x2="19.2023" y2="44.0796" gradientUnits="userSpaceOnUse">
<stop/>
<stop offset="1" stop-color="#EBEBEB"/>
</linearGradient>
<linearGradient id="paint11_linear_4_2188" x1="29.4917" y1="42.0822" x2="29.4917" y2="48.416" gradientUnits="userSpaceOnUse">
<stop/>
<stop offset="1" stop-color="#EBEBEB"/>
</linearGradient>
<linearGradient id="paint12_linear_4_2188" x1="20.7922" y1="30.0941" x2="20.7922" y2="32.757" gradientUnits="userSpaceOnUse">
<stop/>
<stop offset="1" stop-color="#EBEBEB"/>
</linearGradient>
<linearGradient id="paint13_linear_4_2188" x1="66.4046" y1="30.9419" x2="66.4046" y2="46.0808" gradientUnits="userSpaceOnUse">
<stop/>
<stop offset="1" stop-color="#EBEBEB"/>
</linearGradient>
<linearGradient id="paint14_linear_4_2188" x1="53.1075" y1="47.6436" x2="53.1075" y2="47.6665" gradientUnits="userSpaceOnUse">
<stop/>
<stop offset="1" stop-color="#EBEBEB"/>
</linearGradient>
<linearGradient id="paint15_linear_4_2188" x1="60.8923" y1="36.864" x2="60.8923" y2="46.87" gradientUnits="userSpaceOnUse">
<stop/>
<stop offset="1" stop-color="#EBEBEB"/>
</linearGradient>
<linearGradient id="paint16_linear_4_2188" x1="66.487" y1="30.7583" x2="66.487" y2="41.4402" gradientUnits="userSpaceOnUse">
<stop/>
<stop offset="1" stop-color="#EBEBEB"/>
</linearGradient>
<linearGradient id="paint17_linear_4_2188" x1="74.204" y1="30.8633" x2="74.204" y2="44.2445" gradientUnits="userSpaceOnUse">
<stop/>
<stop offset="1" stop-color="#EBEBEB"/>
</linearGradient>
<linearGradient id="paint18_linear_4_2188" x1="63.9148" y1="42.2469" x2="63.9148" y2="48.5808" gradientUnits="userSpaceOnUse">
<stop/>
<stop offset="1" stop-color="#EBEBEB"/>
</linearGradient>
<linearGradient id="paint19_linear_4_2188" x1="72.6143" y1="30.2589" x2="72.6143" y2="32.9218" gradientUnits="userSpaceOnUse">
<stop/>
<stop offset="1" stop-color="#EBEBEB"/>
</linearGradient>
<linearGradient id="paint20_linear_4_2188" x1="27.0768" y1="56.8988" x2="27.0768" y2="77.2221" gradientUnits="userSpaceOnUse">
<stop/>
<stop offset="1" stop-color="#EBEBEB"/>
</linearGradient>
<linearGradient id="paint21_linear_4_2188" x1="27.047" y1="58.176" x2="27.047" y2="77.4157" gradientUnits="userSpaceOnUse">
<stop/>
<stop offset="1" stop-color="#EBEBEB"/>
</linearGradient>
<linearGradient id="paint22_linear_4_2188" x1="26.9794" y1="64.4514" x2="26.9794" y2="78.4345" gradientUnits="userSpaceOnUse">
<stop/>
<stop offset="1" stop-color="#EBEBEB"/>
</linearGradient>
<linearGradient id="paint23_linear_4_2188" x1="66.5544" y1="57.2284" x2="66.5544" y2="77.5516" gradientUnits="userSpaceOnUse">
<stop/>
<stop offset="1" stop-color="#EBEBEB"/>
</linearGradient>
<linearGradient id="paint24_linear_4_2188" x1="66.5842" y1="58.5055" x2="66.5842" y2="77.7451" gradientUnits="userSpaceOnUse">
<stop/>
<stop offset="1" stop-color="#EBEBEB"/>
</linearGradient>
<linearGradient id="paint25_linear_4_2188" x1="66.6518" y1="64.7811" x2="66.6518" y2="78.7642" gradientUnits="userSpaceOnUse">
<stop/>
<stop offset="1" stop-color="#EBEBEB"/>
</linearGradient>
<linearGradient id="paint26_linear_4_2188" x1="66.5694" y1="45.4053" x2="66.5694" y2="65.7285" gradientUnits="userSpaceOnUse">
<stop/>
<stop offset="1" stop-color="#EBEBEB"/>
</linearGradient>
<linearGradient id="paint27_linear_4_2188" x1="66.5995" y1="46.696" x2="66.5995" y2="65.9357" gradientUnits="userSpaceOnUse">
<stop/>
<stop offset="1" stop-color="#EBEBEB"/>
</linearGradient>
<linearGradient id="paint28_linear_4_2188" x1="66.652" y1="52.9579" x2="66.652" y2="66.9409" gradientUnits="userSpaceOnUse">
<stop/>
<stop offset="1" stop-color="#EBEBEB"/>
</linearGradient>
<linearGradient id="paint29_linear_4_2188" x1="53.7754" y1="52.8892" x2="53.7754" y2="56.3475" gradientUnits="userSpaceOnUse">
<stop/>
<stop offset="1" stop-color="#EBEBEB"/>
</linearGradient>
<linearGradient id="paint30_linear_4_2188" x1="53.7753" y1="54.2761" x2="53.7753" y2="55.4289" gradientUnits="userSpaceOnUse">
<stop/>
<stop offset="1" stop-color="#EBEBEB"/>
</linearGradient>
<linearGradient id="paint31_linear_4_2188" x1="27.8567" y1="24.3268" x2="27.8567" y2="27.7851" gradientUnits="userSpaceOnUse">
<stop/>
<stop offset="1" stop-color="#EBEBEB"/>
</linearGradient>
<linearGradient id="paint32_linear_4_2188" x1="27.8566" y1="25.7136" x2="27.8566" y2="26.8664" gradientUnits="userSpaceOnUse">
<stop/>
<stop offset="1" stop-color="#EBEBEB"/>
</linearGradient>
<linearGradient id="paint33_linear_4_2188" x1="38.5961" y1="55.6082" x2="38.5961" y2="57.3373" gradientUnits="userSpaceOnUse">
<stop/>
<stop offset="1" stop-color="#EBEBEB"/>
</linearGradient>
<linearGradient id="paint34_linear_4_2188" x1="58.395" y1="51.1589" x2="58.395" y2="52.3117" gradientUnits="userSpaceOnUse">
<stop/>
<stop offset="1" stop-color="#EBEBEB"/>
</linearGradient>
<linearGradient id="paint35_linear_4_2188" x1="65.5345" y1="21.5803" x2="65.5345" y2="27.3211" gradientUnits="userSpaceOnUse">
<stop/>
<stop offset="1" stop-color="#EBEBEB"/>
</linearGradient>
<linearGradient id="paint36_linear_4_2188" x1="65.5346" y1="23.8462" x2="65.5346" y2="25.7828" gradientUnits="userSpaceOnUse">
<stop/>
<stop offset="1" stop-color="#EBEBEB"/>
</linearGradient>
<linearGradient id="paint37_linear_4_2188" x1="46.6357" y1="0.213501" x2="46.6357" y2="81.6102" gradientUnits="userSpaceOnUse">
<stop/>
<stop offset="1" stop-color="#EBEBEB"/>
</linearGradient>
<linearGradient id="paint38_linear_4_2188" x1="136.69" y1="92.1625" x2="136.69" y2="133.097" gradientUnits="userSpaceOnUse">
<stop/>
<stop offset="1" stop-color="#EBEBEB"/>
</linearGradient>
<linearGradient id="paint39_linear_4_2188" x1="116.996" y1="92.9452" x2="116.996" y2="113.268" gradientUnits="userSpaceOnUse">
<stop/>
<stop offset="1" stop-color="#EBEBEB"/>
</linearGradient>
<linearGradient id="paint40_linear_4_2188" x1="116.967" y1="94.2223" x2="116.967" y2="113.462" gradientUnits="userSpaceOnUse">
<stop/>
<stop offset="1" stop-color="#EBEBEB"/>
</linearGradient>
<linearGradient id="paint41_linear_4_2188" x1="116.914" y1="100.511" x2="116.914" y2="114.495" gradientUnits="userSpaceOnUse">
<stop/>
<stop offset="1" stop-color="#EBEBEB"/>
</linearGradient>
<linearGradient id="paint42_linear_4_2188" x1="140.242" y1="61.8835" x2="140.242" y2="82.2183" gradientUnits="userSpaceOnUse">
<stop/>
<stop offset="1" stop-color="#EBEBEB"/>
</linearGradient>
<linearGradient id="paint43_linear_4_2188" x1="130.523" y1="61.8973" x2="130.523" y2="82.0822" gradientUnits="userSpaceOnUse">
<stop/>
<stop offset="1" stop-color="#EBEBEB"/>
</linearGradient>
<linearGradient id="paint44_linear_4_2188" x1="116.944" y1="77.9463" x2="116.944" y2="93.0852" gradientUnits="userSpaceOnUse">
<stop/>
<stop offset="1" stop-color="#EBEBEB"/>
</linearGradient>
<linearGradient id="paint45_linear_4_2188" x1="130.248" y1="94.6617" x2="130.248" y2="94.6848" gradientUnits="userSpaceOnUse">
<stop/>
<stop offset="1" stop-color="#EBEBEB"/>
</linearGradient>
<linearGradient id="paint46_linear_4_2188" x1="122.464" y1="83.8822" x2="122.464" y2="93.8882" gradientUnits="userSpaceOnUse">
<stop/>
<stop offset="1" stop-color="#EBEBEB"/>
</linearGradient>
<linearGradient id="paint47_linear_4_2188" x1="116.854" y1="77.7765" x2="116.854" y2="88.4584" gradientUnits="userSpaceOnUse">
<stop/>
<stop offset="1" stop-color="#EBEBEB"/>
</linearGradient>
<linearGradient id="paint48_linear_4_2188" x1="109.137" y1="77.8812" x2="109.137" y2="91.2625" gradientUnits="userSpaceOnUse">
<stop/>
<stop offset="1" stop-color="#EBEBEB"/>
</linearGradient>
<linearGradient id="paint49_linear_4_2188" x1="119.426" y1="89.265" x2="119.426" y2="95.5989" gradientUnits="userSpaceOnUse">
<stop/>
<stop offset="1" stop-color="#EBEBEB"/>
</linearGradient>
<linearGradient id="paint50_linear_4_2188" x1="110.727" y1="77.2771" x2="110.727" y2="79.94" gradientUnits="userSpaceOnUse">
<stop/>
<stop offset="1" stop-color="#EBEBEB"/>
</linearGradient>
<linearGradient id="paint51_linear_4_2188" x1="156.339" y1="78.1249" x2="156.339" y2="93.2637" gradientUnits="userSpaceOnUse">
<stop/>
<stop offset="1" stop-color="#EBEBEB"/>
</linearGradient>
<linearGradient id="paint52_linear_4_2188" x1="143.042" y1="94.8265" x2="143.042" y2="94.8495" gradientUnits="userSpaceOnUse">
<stop/>
<stop offset="1" stop-color="#EBEBEB"/>
</linearGradient>
<linearGradient id="paint53_linear_4_2188" x1="150.842" y1="84.0469" x2="150.842" y2="94.0529" gradientUnits="userSpaceOnUse">
<stop/>
<stop offset="1" stop-color="#EBEBEB"/>
</linearGradient>
<linearGradient id="paint54_linear_4_2188" x1="156.437" y1="77.9412" x2="156.437" y2="88.623" gradientUnits="userSpaceOnUse">
<stop/>
<stop offset="1" stop-color="#EBEBEB"/>
</linearGradient>
<linearGradient id="paint55_linear_4_2188" x1="164.154" y1="78.046" x2="164.154" y2="91.4273" gradientUnits="userSpaceOnUse">
<stop/>
<stop offset="1" stop-color="#EBEBEB"/>
</linearGradient>
<linearGradient id="paint56_linear_4_2188" x1="153.864" y1="89.4298" x2="153.864" y2="95.7636" gradientUnits="userSpaceOnUse">
<stop/>
<stop offset="1" stop-color="#EBEBEB"/>
</linearGradient>
<linearGradient id="paint57_linear_4_2188" x1="162.564" y1="77.4418" x2="162.564" y2="80.1047" gradientUnits="userSpaceOnUse">
<stop/>
<stop offset="1" stop-color="#EBEBEB"/>
</linearGradient>
<linearGradient id="paint58_linear_4_2188" x1="117.011" y1="104.082" x2="117.011" y2="124.405" gradientUnits="userSpaceOnUse">
<stop/>
<stop offset="1" stop-color="#EBEBEB"/>
</linearGradient>
<linearGradient id="paint59_linear_4_2188" x1="116.982" y1="105.359" x2="116.982" y2="124.599" gradientUnits="userSpaceOnUse">
<stop/>
<stop offset="1" stop-color="#EBEBEB"/>
</linearGradient>
<linearGradient id="paint60_linear_4_2188" x1="116.914" y1="111.634" x2="116.914" y2="125.617" gradientUnits="userSpaceOnUse">
<stop/>
<stop offset="1" stop-color="#EBEBEB"/>
</linearGradient>
<linearGradient id="paint61_linear_4_2188" x1="156.504" y1="104.411" x2="156.504" y2="124.734" gradientUnits="userSpaceOnUse">
<stop/>
<stop offset="1" stop-color="#EBEBEB"/>
</linearGradient>
<linearGradient id="paint62_linear_4_2188" x1="156.519" y1="105.688" x2="156.519" y2="124.928" gradientUnits="userSpaceOnUse">
<stop/>
<stop offset="1" stop-color="#EBEBEB"/>
</linearGradient>
<linearGradient id="paint63_linear_4_2188" x1="156.587" y1="111.964" x2="156.587" y2="125.947" gradientUnits="userSpaceOnUse">
<stop/>
<stop offset="1" stop-color="#EBEBEB"/>
</linearGradient>
<linearGradient id="paint64_linear_4_2188" x1="156.504" y1="92.5881" x2="156.504" y2="112.911" gradientUnits="userSpaceOnUse">
<stop/>
<stop offset="1" stop-color="#EBEBEB"/>
</linearGradient>
<linearGradient id="paint65_linear_4_2188" x1="156.534" y1="93.8789" x2="156.534" y2="113.119" gradientUnits="userSpaceOnUse">
<stop/>
<stop offset="1" stop-color="#EBEBEB"/>
</linearGradient>
<linearGradient id="paint66_linear_4_2188" x1="156.602" y1="100.141" x2="156.602" y2="114.124" gradientUnits="userSpaceOnUse">
<stop/>
<stop offset="1" stop-color="#EBEBEB"/>
</linearGradient>
<linearGradient id="paint67_linear_4_2188" x1="143.725" y1="100.072" x2="143.725" y2="103.53" gradientUnits="userSpaceOnUse">
<stop/>
<stop offset="1" stop-color="#EBEBEB"/>
</linearGradient>
<linearGradient id="paint68_linear_4_2188" x1="143.725" y1="101.459" x2="143.725" y2="102.612" gradientUnits="userSpaceOnUse">
<stop/>
<stop offset="1" stop-color="#EBEBEB"/>
</linearGradient>
<linearGradient id="paint69_linear_4_2188" x1="117.792" y1="71.5096" x2="117.792" y2="74.9679" gradientUnits="userSpaceOnUse">
<stop/>
<stop offset="1" stop-color="#EBEBEB"/>
</linearGradient>
<linearGradient id="paint70_linear_4_2188" x1="117.791" y1="72.8966" x2="117.791" y2="74.0494" gradientUnits="userSpaceOnUse">
<stop/>
<stop offset="1" stop-color="#EBEBEB"/>
</linearGradient>
<linearGradient id="paint71_linear_4_2188" x1="128.546" y1="102.791" x2="128.546" y2="104.52" gradientUnits="userSpaceOnUse">
<stop/>
<stop offset="1" stop-color="#EBEBEB"/>
</linearGradient>
<linearGradient id="paint72_linear_4_2188" x1="148.345" y1="98.3419" x2="148.345" y2="99.4947" gradientUnits="userSpaceOnUse">
<stop/>
<stop offset="1" stop-color="#EBEBEB"/>
</linearGradient>
<linearGradient id="paint73_linear_4_2188" x1="155.469" y1="68.7633" x2="155.469" y2="74.5041" gradientUnits="userSpaceOnUse">
<stop/>
<stop offset="1" stop-color="#EBEBEB"/>
</linearGradient>
<linearGradient id="paint74_linear_4_2188" x1="155.469" y1="71.0291" x2="155.469" y2="72.9657" gradientUnits="userSpaceOnUse">
<stop/>
<stop offset="1" stop-color="#EBEBEB"/>
</linearGradient>
<linearGradient id="paint75_linear_4_2188" x1="136.57" y1="47.3964" x2="136.57" y2="128.793" gradientUnits="userSpaceOnUse">
<stop/>
<stop offset="1" stop-color="#EBEBEB"/>
</linearGradient>
</defs>
</svg>
