<svg width="160" height="60" viewBox="0 0 160 60" fill="none" xmlns="http://www.w3.org/2000/svg">
<g clip-path="url(#clip0_5_13815)">
<path d="M27.6149 27.6923H25.29V57.8598H27.6149V27.6923Z" fill="#3B3B3A"/>
<path d="M6.57774 28.1762L23.6646 38.17L23.5323 42.6551V43.1576L6.55884 33.4057C6.55884 28.902 6.55884 32.8474 6.55884 28.1762H6.57774Z" fill="#80A73E"/>
<path d="M6.71005 28.9764L23.6457 38.9702C23.6457 38.9702 23.6457 38.9144 23.5323 43.1576L23.4756 42.804L6.55884 33.4057C6.71005 29.2184 6.55884 33.2196 6.71005 28.9764Z" fill="url(#paint0_linear_5_13815)"/>
<path d="M23.5323 43.1576L6.55884 33.5732V32.8474L23.5701 42.3387V43.139L23.5323 43.1576Z" fill="#3B5020"/>
<path d="M30.6201 13.8648C32.3023 17.2891 31.3006 20.9739 28.1251 23.1141C27.7282 23.3747 27.3124 23.6166 26.7453 23.9516C27.3124 20.7506 26.8209 17.8474 25.5545 15.0558H25.5356L25.8948 8.95161C25.8948 8.95161 25.8948 8.98884 25.9515 9.00745C27.7471 10.3474 29.5994 11.7804 30.6201 13.8275V13.8648Z" fill="#E2BD9C"/>
<path d="M25.5358 15.0744H25.5547C25.3279 17.9591 24.9121 20.8623 24.6664 23.8586C23.4945 23.3561 22.6439 22.5931 21.869 21.737C19.0338 18.629 19.2417 14.3672 22.436 11.371C23.3433 10.5149 24.8176 9.77047 25.8383 9.02606C25.8761 8.98884 25.895 8.97022 25.9139 8.95161L25.5547 15.0558L25.5358 15.0744Z" fill="#C59671"/>
<path d="M23.6078 26.9107C23.6078 26.9107 22.3603 26.6687 20.0921 25.8127C18.3721 25.1799 16.5765 24.6774 14.8186 24.1563C13.798 23.8586 12.7962 23.5608 11.7755 23.263C11.0951 23.0769 9.88537 22.9467 9.33723 22.5186C11.0951 23.84 12.9285 25.0682 14.9131 26.0732C17.2947 27.2829 19.8653 28.4553 22.4737 29.1625C21.831 29.2556 21.2262 29.5347 20.6024 29.7208C20.2622 29.8139 19.922 29.9069 19.6007 30.0372H18.9958C18.4099 29.9069 17.805 29.9256 17.2191 29.9256C17.1057 29.9256 16.9734 29.9256 16.86 29.9256C16.8033 29.8697 16.7088 29.8511 16.6332 29.8325C15.2723 29.665 13.9114 29.4045 12.5883 29.0136C12.456 28.9764 12.3426 29.0136 12.248 29.0881C11.8133 28.9578 11.3786 28.8089 10.9439 28.6414C10.8304 28.5856 10.9439 28.6601 10.8682 28.7531C9.48845 28.0273 7.84403 27.1526 6.57764 26.2593V18.8896C6.57764 18.8896 10.2823 18.629 16.1606 20.6017C22.0389 22.5744 23.6267 26.9107 23.6267 26.9107H23.6078Z" fill="url(#paint1_linear_5_13815)"/>
<path d="M27.1991 27.7481L26.5376 29.9442L9.29956 22.5744L27.1802 27.7481H27.1991Z" fill="#3B3B3A"/>
<path d="M6.55884 19.5968C6.55884 19.5968 8.08985 19.5782 8.20326 19.5782C9.09162 19.5782 9.97998 19.6526 10.8683 19.7643C14.1005 20.2109 17.3326 21.1042 19.9032 23.17C22.5872 25.3288 22.4738 26.3896 22.4738 26.3896L23.4945 26.6873C23.4945 26.6873 22.4549 22.3511 16.104 20.3598C9.75317 18.3685 6.55884 18.871 6.55884 18.871V19.5968Z" fill="#80A73E"/>
<path d="M6.5588 18.8524C6.5588 18.8524 6.97463 19.8945 7.71178 20.9181C8.44893 21.9417 9.2995 22.5744 9.2995 22.5744L12.3993 24.6588L14.5919 25.9057C14.5919 25.9057 13.42 28.232 12.2292 28.5856C11.0384 28.9206 10.3391 28.5484 10.3391 28.5484L6.521 26.2779V18.871L6.5588 18.8524Z" fill="url(#paint2_linear_5_13815)"/>
<path d="M18.3344 27.6179C15.3858 26.3524 14.6108 25.9057 14.6108 25.9057C14.6108 25.9057 13.2688 27.7109 11.5488 28.2506C10.9251 28.4553 10.547 28.5484 10.3391 28.5112C11.3598 28.995 15.0266 30.6514 17.5027 30.5583C20.3946 30.4653 22.7195 29.237 22.7195 29.237C22.7195 29.237 21.4909 28.9578 18.3533 27.5992L18.3344 27.6179Z" fill="#3B3B3A"/>
<path d="M6.55884 18.4988V18.8524C6.55884 18.8524 8.97821 18.7221 11.322 19.1687C13.6657 19.6154 16.4442 20.4529 16.4442 20.4529C16.4442 20.4529 14.573 19.6898 12.4183 19.1501C10.1123 18.5732 6.55884 18.4801 6.55884 18.4801V18.4988Z" fill="#3B3B3A"/>
<path d="M29.2215 27.0223C29.2215 27.0223 30.469 26.7804 32.7372 25.9243C34.4572 25.2916 36.2528 24.7891 38.0107 24.268C39.0313 23.9702 40.0331 23.6725 41.0538 23.3747C41.7342 23.1886 42.9439 23.0583 43.4921 22.6303C41.7342 23.9516 39.9008 25.1799 37.9162 26.1849C35.5346 27.3945 32.9451 28.567 30.3556 29.2742C30.9983 29.3672 31.6031 29.6464 32.2269 29.8325C32.5671 29.9256 32.9073 30.0186 33.2286 30.1489H33.8335C34.4194 30.0186 35.0243 30.0372 35.6102 30.0372C35.7236 30.0372 35.8559 30.0372 35.9693 30.0372C36.026 29.9814 36.1205 29.9628 36.1961 29.9442C37.557 29.7767 38.9179 29.5161 40.241 29.1253C40.3733 29.0881 40.4867 29.1253 40.5813 29.1998C41.016 29.0695 41.4507 28.9206 41.8854 28.7531C41.9989 28.6973 41.8854 28.7717 41.9611 28.8648C43.3409 28.139 44.9853 27.2643 46.2517 26.371V19.0012C46.2517 19.0012 42.547 18.7407 36.6687 20.7134C30.7904 22.6861 29.2026 27.0223 29.2026 27.0223H29.2215Z" fill="url(#paint3_linear_5_13815)"/>
<path d="M25.6301 27.8598L26.2917 30.0558L43.5108 22.6861L25.6301 27.8598Z" fill="#3B3B3A"/>
<path d="M46.2706 19.6898C46.2706 19.6898 44.7396 19.6712 44.6262 19.6712C43.7378 19.6712 42.8494 19.7457 41.9611 19.8573C38.7289 20.304 35.4968 21.1973 32.9262 23.263C30.2422 25.4218 30.3556 26.4826 30.3556 26.4826L29.335 26.7804C29.335 26.7804 30.3745 22.4442 36.7254 20.4528C43.0762 18.4615 46.2706 18.964 46.2706 18.964V19.6898Z" fill="#80A73E"/>
<path d="M46.2706 18.964C46.2706 18.964 45.8548 20.0062 45.1176 21.0298C44.3805 22.0534 43.5299 22.6861 43.5299 22.6861L40.4301 24.7705L38.2375 26.0174C38.2375 26.0174 39.4094 28.3437 40.6002 28.6973C41.791 29.0323 42.4904 28.6601 42.4904 28.6601L46.3084 26.3896V18.9826L46.2706 18.964Z" fill="url(#paint4_linear_5_13815)"/>
<path d="M34.495 27.7109C37.4436 26.4454 38.2185 25.9988 38.2185 25.9988C38.2185 25.9988 39.5605 27.804 41.2806 28.3437C41.9043 28.5484 42.2823 28.6414 42.4902 28.6042C41.4696 29.0881 37.8027 30.7444 35.3266 30.6514C32.4347 30.5583 30.1099 29.33 30.1099 29.33C30.1099 29.33 31.3385 29.0509 34.4761 27.6923L34.495 27.7109Z" fill="#3B3B3A"/>
<path d="M46.2704 18.6104V18.964C46.2704 18.964 43.851 18.8337 41.5073 19.2804C39.1635 19.727 36.385 20.5645 36.385 20.5645C36.385 20.5645 38.2562 19.8015 40.411 19.2618C42.717 18.6849 46.2704 18.5918 46.2704 18.5918V18.6104Z" fill="#3B3B3A"/>
<path d="M6.57764 35.062L23.6645 45.0558L23.5322 49.5409V50.0434L6.57764 40.2916C6.57764 35.7878 6.57764 39.7333 6.57764 35.062Z" fill="#E2BD9C"/>
<path d="M6.72885 35.8623L23.6645 45.8561C23.6645 45.8561 23.6645 45.8002 23.5511 50.0434L23.4944 49.6898L6.57764 40.2916C6.72885 36.1042 6.57764 40.1055 6.72885 35.8623Z" fill="url(#paint5_linear_5_13815)"/>
<path d="M23.5323 50.0434L6.55884 40.4591V39.7332L23.5701 49.2246L23.5323 50.0248V50.0434Z" fill="#B5825B"/>
<path d="M46.3273 35.2668L29.335 45.2605L29.4673 49.7457V50.2481L46.3273 40.4963C46.3273 35.9926 46.3273 39.938 46.3273 35.2668Z" fill="#E2BD9C"/>
<path d="M46.195 36.067L29.3728 46.0608C29.3728 46.0608 29.3728 46.005 29.4862 50.2481L29.5429 49.8945L46.3651 40.5149C46.2139 36.3275 46.3651 40.3288 46.2139 36.0856L46.195 36.067Z" fill="url(#paint6_linear_5_13815)"/>
<path d="M29.4671 50.2481L46.3461 40.6638V39.938L29.4482 49.4293L29.486 50.2295L29.4671 50.2481Z" fill="#B5825B"/>
<path d="M46.3839 27.9715L29.2971 37.9653L29.4294 42.4504V42.9529L46.4028 33.201C46.4028 28.6973 46.4028 32.6427 46.4028 27.9715H46.3839Z" fill="#80A73E"/>
<path d="M46.2515 28.7531L29.3159 38.7469C29.3159 38.7469 29.3159 38.6911 29.4293 42.9342L29.486 42.5806L46.4027 33.201C46.2515 29.0136 46.4027 33.0149 46.2515 28.7717V28.7531Z" fill="url(#paint7_linear_5_13815)"/>
<path d="M29.4294 42.9342L46.4028 33.3499V32.6241L29.3916 42.1154L29.4294 42.9156V42.9342Z" fill="#3B5020"/>
<path d="M30.4879 35.1365C31.2062 35.1365 31.7732 34.5596 31.7732 33.871C31.7732 33.1824 31.1873 32.6055 30.4879 32.6055C29.7886 32.6055 29.2026 33.1824 29.2026 33.871C29.2026 34.5596 29.7886 35.1365 30.4879 35.1365Z" fill="url(#paint8_linear_5_13815)"/>
<path d="M30.488 34.299C30.7337 34.299 30.9227 34.1129 30.9227 33.871C30.9227 33.629 30.7337 33.4429 30.488 33.4429C30.2422 33.4429 30.0532 33.629 30.0532 33.871C30.0532 34.1129 30.2422 34.299 30.488 34.299Z" fill="#3B3B3A"/>
<path d="M15.5746 17.4566C16.2929 17.4566 16.8599 16.8796 16.8599 16.1911C16.8599 15.5025 16.2739 14.9256 15.5746 14.9256C14.8752 14.9256 14.2893 15.5025 14.2893 16.1911C14.2893 16.8796 14.8752 17.4566 15.5746 17.4566Z" fill="url(#paint9_linear_5_13815)"/>
<path d="M15.5746 16.6191C15.8203 16.6191 16.0094 16.433 16.0094 16.1911C16.0094 15.9491 15.8203 15.763 15.5746 15.763C15.3289 15.763 15.1399 15.9491 15.1399 16.1911C15.1399 16.433 15.3289 16.6191 15.5746 16.6191Z" fill="#3B3B3A"/>
<path d="M21.7554 35.5459C22.1146 35.5459 22.3981 35.2667 22.3981 34.9131C22.3981 34.5596 22.1146 34.2804 21.7554 34.2804C21.3963 34.2804 21.1128 34.5596 21.1128 34.9131C21.1128 35.2667 21.3963 35.5459 21.7554 35.5459Z" fill="url(#paint10_linear_5_13815)"/>
<path d="M33.153 32.3635C33.3987 32.3635 33.5877 32.1774 33.5877 31.9355C33.5877 31.6935 33.3987 31.5074 33.153 31.5074C32.9073 31.5074 32.7183 31.6935 32.7183 31.9355C32.7183 32.1774 32.9073 32.3635 33.153 32.3635Z" fill="#3B3B3A"/>
<path d="M37.2545 17.4566C38.4453 17.4566 39.3904 16.5074 39.3904 15.3536C39.3904 14.1998 38.4264 13.2506 37.2545 13.2506C36.0826 13.2506 35.1187 14.1998 35.1187 15.3536C35.1187 16.5074 36.0826 17.4566 37.2545 17.4566Z" fill="url(#paint11_linear_5_13815)"/>
<path d="M37.2546 16.0422C37.6516 16.0422 37.9729 15.7258 37.9729 15.335C37.9729 14.9442 37.6516 14.6278 37.2546 14.6278C36.8577 14.6278 36.5364 14.9442 36.5364 15.335C36.5364 15.7258 36.8577 16.0422 37.2546 16.0422Z" fill="#3B3B3A"/>
<path d="M26.3674 60L0 45V15L26.3674 0L52.7348 15V45L26.3674 60ZM3.04312 43.2692L26.3863 56.5385L49.7295 43.2692V16.7308L26.3674 3.46154L3.04312 16.7308V43.2692Z" fill="#314419"/>
<path d="M59.1802 15.6328H64.8884L82.6368 35.9367H82.7502V15.6328H88.723V43.567H83.0148L65.2664 23.3002H65.153V43.567H59.1802V15.6328Z" fill="#314419"/>
<path d="M106.66 15.6328H112.576L126.185 43.567H119.835L116.602 36.9417H102.578L99.3455 43.567H92.9946L106.66 15.6328ZM115.147 33.0707L109.609 21.2531H109.496L104.071 33.0707H115.147Z" fill="#314419"/>
<path d="M130.476 15.6328H136.184L153.933 35.9367H154.046V15.6328H160.019V43.567H154.311L136.562 23.3002H136.449V43.567H130.476V15.6328Z" fill="#314419"/>
<path d="M62.3366 48.0335H62.9603V52.7233H62.2421L59.8227 48.9454V52.7233H59.199V48.0335H59.955L62.3366 51.8114V48.0335Z" fill="#314419"/>
<path d="M65.1908 51.3462L64.6994 52.7233H64.0378L65.8335 48.0335H66.5517L68.2717 52.7233H67.5724L67.0999 51.3462H65.1908ZM66.8541 50.7879L66.1548 48.7221L65.3987 50.7879H66.873H66.8541Z" fill="#314419"/>
<path d="M70.8044 52.7233H70.1618V48.5918H68.5552V48.0335H72.4299V48.5918H70.8233V52.7233H70.8044Z" fill="#314419"/>
<path d="M74.1312 52.7233H73.4885V48.0335H74.1312V52.7233Z" fill="#314419"/>
<path d="M77.7034 52.8536C75.9267 52.8536 75.3975 51.402 75.3975 50.3784C75.3975 49.3548 75.9267 47.9032 77.7034 47.9032C79.4802 47.9032 80.0094 49.3548 80.0094 50.3784C80.0094 51.402 79.4802 52.8536 77.7034 52.8536ZM77.7034 48.4802C76.6639 48.4802 76.059 49.2618 76.059 50.3784C76.059 51.495 76.6828 52.2953 77.7034 52.2953C78.7241 52.2953 79.3478 51.495 79.3478 50.397C79.3478 49.299 78.7241 48.4988 77.7034 48.4988V48.4802Z" fill="#314419"/>
<path d="M84.4511 48.0335H85.0748V52.7233H84.3566L81.9372 48.9454V52.7233H81.3135V48.0335H82.0695L84.4511 51.8114V48.0335Z" fill="#314419"/>
<path d="M87.3053 51.3462L86.8139 52.7233H86.1523L87.948 48.0335H88.6662L90.3862 52.7233H89.6869L89.2144 51.3462H87.3053ZM88.9686 50.7879L88.2693 48.7221L87.5132 50.7879H88.9875H88.9686Z" fill="#314419"/>
<path d="M92.0872 52.165H94.4877V52.7233H91.4446V48.0335H92.0872V52.165Z" fill="#314419"/>
<path d="M98.684 51.3462L98.1926 52.7233H97.531L99.3266 48.0335H100.045L101.765 52.7233H101.066L100.593 51.3462H98.684ZM100.347 50.7879L99.648 48.7221L98.8919 50.7879H100.366H100.347Z" fill="#314419"/>
<path d="M105.942 49.4479C105.772 48.629 105.073 48.4802 104.619 48.4802C103.768 48.4802 103.069 49.1129 103.069 50.3412C103.069 51.4392 103.466 52.2953 104.638 52.2953C105.054 52.2953 105.772 52.1092 105.999 51.0112H106.622C106.358 52.7792 104.902 52.8536 104.543 52.8536C103.466 52.8536 102.407 52.165 102.407 50.3598C102.407 48.9268 103.239 47.9218 104.619 47.9218C105.848 47.9218 106.471 48.6663 106.566 49.4665H105.942V49.4479Z" fill="#314419"/>
<path d="M108.494 51.3462L108.002 52.7233H107.341L109.136 48.0335H109.855L111.575 52.7233H110.875L110.403 51.3462H108.494ZM110.157 50.7879L109.458 48.7221L108.702 50.7879H110.176H110.157Z" fill="#314419"/>
<path d="M112.633 48.0335H114.561C115.808 48.0335 116.565 48.964 116.565 50.304C116.565 51.3648 116.092 52.7047 114.542 52.7047H112.633V48.0149V48.0335ZM113.276 52.1836H114.523C115.355 52.1836 115.903 51.5323 115.903 50.3598C115.903 49.1873 115.355 48.5918 114.485 48.5918H113.276V52.2022V52.1836Z" fill="#314419"/>
<path d="M121.347 52.7233H117.831V48.0335H121.309V48.5918H118.474V49.969H121.082V50.5273H118.474V52.1464H121.347V52.7047V52.7233Z" fill="#314419"/>
<path d="M123.577 48.0335L124.938 51.9975L126.299 48.0335H127.206V52.7233H126.582V49.9504C126.582 49.8201 126.601 49.206 126.601 48.7779L125.259 52.7233H124.617L123.275 48.7779H123.256C123.256 49.206 123.275 49.8201 123.275 49.9504V52.7233H122.651V48.0335H123.558H123.577Z" fill="#314419"/>
<path d="M129.039 48.0335L130.4 50.2854L131.761 48.0335H132.517L130.722 50.8437V52.7233H130.079V50.8437L128.283 48.0335H129.039Z" fill="#314419"/>
<path d="M138.036 52.8536C136.26 52.8536 135.73 51.402 135.73 50.3784C135.73 49.3548 136.26 47.9032 138.036 47.9032C139.813 47.9032 140.342 49.3548 140.342 50.3784C140.342 51.402 139.813 52.8536 138.036 52.8536ZM138.036 48.4802C136.997 48.4802 136.392 49.2618 136.392 50.3784C136.392 51.495 137.016 52.2953 138.036 52.2953C139.057 52.2953 139.681 51.495 139.681 50.397C139.681 49.299 139.057 48.4988 138.036 48.4988V48.4802Z" fill="#314419"/>
<path d="M144.898 48.0335V48.5918H142.252V49.969H144.576V50.5273H142.252V52.7233H141.609V48.0335H144.898Z" fill="#314419"/>
<path d="M62.3366 54.3424H62.9603V59.0323H62.2421L59.8227 55.2543V59.0323H59.199V54.3424H59.955L62.3366 58.1204V54.3424Z" fill="#314419"/>
<path d="M68.1582 54.3424V57.3759C68.1582 58.3251 67.5534 59.1439 66.2492 59.1439C64.945 59.1439 64.4158 58.3437 64.4158 57.469V54.3424H65.0584V57.3015C65.0584 58.3065 65.7011 58.6042 66.2681 58.6042C66.8351 58.6042 67.5156 58.3251 67.5156 57.3201V54.3424H68.1582Z" fill="#314419"/>
<path d="M71.4849 59.0323H70.8422V54.9007H69.2356V54.3424H73.1104V54.9007H71.5038V59.0323H71.4849Z" fill="#314419"/>
<path d="M74.8116 59.0323H74.1689V54.3424H76.3615C77.1365 54.3424 77.9303 54.6216 77.9303 55.6079C77.9303 56.2965 77.5712 56.5571 77.2688 56.7246C77.4767 56.8735 77.8547 56.9479 77.8547 57.5993V58.4553C77.8547 58.7159 77.9114 58.8089 78.1193 58.9206V59.0323H77.3255C77.231 58.7345 77.2121 58.0273 77.2121 57.8598C77.2121 57.469 77.1365 57.0223 76.3615 57.0223H74.8116V59.0323ZM74.8116 56.4826H76.3048C76.7773 56.4826 77.2688 56.3524 77.2688 55.6638C77.2688 54.9752 76.7395 54.8821 76.4182 54.8821H74.8116V56.4826Z" fill="#314419"/>
<path d="M79.9905 59.0323H79.3479V54.3424H79.9905V59.0323Z" fill="#314419"/>
<path d="M83.3171 59.0323H82.6745V54.9007H81.0679V54.3424H84.9426V54.9007H83.336V59.0323H83.3171Z" fill="#314419"/>
<path d="M86.6248 59.0323H85.9822V54.3424H86.6248V59.0323Z" fill="#314419"/>
<path d="M90.2161 59.1439C88.4394 59.1439 87.9102 57.6923 87.9102 56.6687C87.9102 55.6452 88.4394 54.1935 90.2161 54.1935C91.9928 54.1935 92.5221 55.6452 92.5221 56.6687C92.5221 57.6923 91.9928 59.1439 90.2161 59.1439ZM90.2161 54.7705C89.1765 54.7705 88.5717 55.5521 88.5717 56.6687C88.5717 57.7854 89.1954 58.5856 90.2161 58.5856C91.2368 58.5856 91.8605 57.7853 91.8605 56.6873C91.8605 55.5893 91.2368 54.7891 90.2161 54.7891V54.7705Z" fill="#314419"/>
<path d="M96.945 54.3424H97.5687V59.0323H96.8505L94.4311 55.2543V59.0323H93.8074V54.3424H94.5634L96.945 58.1204V54.3424Z" fill="#314419"/>
<path d="M101.16 59.1439C99.3832 59.1439 98.854 57.6923 98.854 56.6687C98.854 55.6452 99.3832 54.1935 101.16 54.1935C102.937 54.1935 103.466 55.6452 103.466 56.6687C103.466 57.6923 102.937 59.1439 101.16 59.1439ZM101.16 54.7705C100.12 54.7705 99.5156 55.5521 99.5156 56.6687C99.5156 57.7854 100.139 58.5856 101.16 58.5856C102.181 58.5856 102.804 57.7853 102.804 56.6873C102.804 55.5893 102.181 54.7891 101.16 54.7891V54.7705Z" fill="#314419"/>
<path d="M105.394 58.4553H107.794V59.0136H104.751V54.3238H105.394V58.4553Z" fill="#314419"/>
<path d="M111.026 59.1439C109.25 59.1439 108.72 57.6923 108.72 56.6687C108.72 55.6452 109.25 54.1935 111.026 54.1935C112.803 54.1935 113.332 55.6452 113.332 56.6687C113.332 57.6923 112.803 59.1439 111.026 59.1439ZM111.026 54.7705C109.987 54.7705 109.382 55.5521 109.382 56.6687C109.382 57.7854 110.006 58.5856 111.026 58.5856C112.047 58.5856 112.671 57.7853 112.671 56.6873C112.671 55.5893 112.047 54.7891 111.026 54.7891V54.7705Z" fill="#314419"/>
<path d="M116.678 56.5199H118.757V59.0323H118.341L118.19 58.4181C117.869 58.8648 117.264 59.1439 116.621 59.1439C114.958 59.1439 114.41 57.7667 114.41 56.6315C114.41 55.4963 115.109 54.2122 116.659 54.2122C117.548 54.2122 118.53 54.7146 118.663 55.7568H118.039C117.831 54.938 117.132 54.7705 116.621 54.7705C115.771 54.7705 115.071 55.4404 115.071 56.6687C115.071 57.6179 115.393 58.6042 116.659 58.6042C116.886 58.6042 117.283 58.5856 117.642 58.3065C118.058 57.9901 118.152 57.562 118.152 57.0596H116.678V56.5199Z" fill="#314419"/>
<path d="M120.572 54.3424L121.933 56.5943L123.294 54.3424H124.05L122.254 57.1526V59.0323H121.611V57.1526L119.816 54.3424H120.572Z" fill="#314419"/>
</g>
<defs>
<linearGradient id="paint0_linear_5_13815" x1="7.86303" y1="32.7543" x2="23.803" y2="40.238" gradientUnits="userSpaceOnUse">
<stop offset="0.04" stop-color="#80A73E"/>
<stop offset="1" stop-color="#283816"/>
</linearGradient>
<linearGradient id="paint1_linear_5_13815" x1="6.55874" y1="24.4727" x2="23.6078" y2="24.4727" gradientUnits="userSpaceOnUse">
<stop stop-color="#394D1D"/>
<stop offset="0.69" stop-color="#7FA43D"/>
<stop offset="1" stop-color="#283816"/>
</linearGradient>
<linearGradient id="paint2_linear_5_13815" x1="8.65685" y1="23.7655" x2="14.9431" y2="25.0692" gradientUnits="userSpaceOnUse">
<stop stop-color="#232F12"/>
<stop offset="0.97" stop-color="#4C6D26"/>
<stop offset="1" stop-color="#283816"/>
</linearGradient>
<linearGradient id="paint3_linear_5_13815" x1="46.2706" y1="24.5658" x2="29.2215" y2="24.5658" gradientUnits="userSpaceOnUse">
<stop stop-color="#394D1D"/>
<stop offset="0.69" stop-color="#7FA43D"/>
<stop offset="1" stop-color="#283816"/>
</linearGradient>
<linearGradient id="paint4_linear_5_13815" x1="44.1726" y1="23.8586" x2="37.8864" y2="25.1623" gradientUnits="userSpaceOnUse">
<stop stop-color="#232F12"/>
<stop offset="0.97" stop-color="#4C6D26"/>
<stop offset="1" stop-color="#283816"/>
</linearGradient>
<linearGradient id="paint5_linear_5_13815" x1="7.86293" y1="39.6402" x2="23.8028" y2="47.1238" gradientUnits="userSpaceOnUse">
<stop offset="0.04" stop-color="#E2BD9C"/>
<stop offset="1" stop-color="#B17F56"/>
</linearGradient>
<linearGradient id="paint6_linear_5_13815" x1="45.0609" y1="39.8821" x2="29.1954" y2="47.2898" gradientUnits="userSpaceOnUse">
<stop offset="0.04" stop-color="#E2BD9C"/>
<stop offset="1" stop-color="#B17F56"/>
</linearGradient>
<linearGradient id="paint7_linear_5_13815" x1="45.0986" y1="32.531" x2="29.1586" y2="40.0147" gradientUnits="userSpaceOnUse">
<stop offset="0.04" stop-color="#80A73E"/>
<stop offset="1" stop-color="#283816"/>
</linearGradient>
<linearGradient id="paint8_linear_5_13815" x1="29.2026" y1="33.871" x2="31.7732" y2="33.871" gradientUnits="userSpaceOnUse">
<stop stop-color="#394D1D"/>
<stop offset="0.69" stop-color="#7FA43D"/>
<stop offset="1" stop-color="#283816"/>
</linearGradient>
<linearGradient id="paint9_linear_5_13815" x1="14.2893" y1="16.1911" x2="16.8599" y2="16.1911" gradientUnits="userSpaceOnUse">
<stop stop-color="#394D1D"/>
<stop offset="0.69" stop-color="#7FA43D"/>
<stop offset="1" stop-color="#283816"/>
</linearGradient>
<linearGradient id="paint10_linear_5_13815" x1="21.1128" y1="34.9131" x2="22.3981" y2="34.9131" gradientUnits="userSpaceOnUse">
<stop stop-color="#394D1D"/>
<stop offset="0.69" stop-color="#7FA43D"/>
<stop offset="1" stop-color="#283816"/>
</linearGradient>
<linearGradient id="paint11_linear_5_13815" x1="35.0998" y1="15.335" x2="39.3904" y2="15.335" gradientUnits="userSpaceOnUse">
<stop stop-color="#394D1D"/>
<stop offset="0.69" stop-color="#7FA43D"/>
<stop offset="1" stop-color="#283816"/>
</linearGradient>
<clipPath id="clip0_5_13815">
<rect width="160" height="60" fill="white"/>
</clipPath>
</defs>
</svg>
