<svg width="187" height="228" viewBox="0 0 187 228" fill="none" xmlns="http://www.w3.org/2000/svg">
<g clip-path="url(#clip0_20_648)">
<path d="M0 143.602H10.567L43.4837 181.74H43.6841V143.602H54.7588V196.055H44.1917L11.275 157.984H11.0747V196.055H0V143.602Z" fill="white"/>
<path d="M88.0629 143.602H99.0306L124.266 196.055H112.497L106.512 183.617H80.4749L74.4901 196.055H62.7207L88.0495 143.602H88.0629ZM103.827 176.347L93.5534 154.162H93.353L83.2803 176.347H103.827Z" fill="white"/>
<path d="M132.241 143.602H142.808L175.725 181.74H175.925V143.602H187V196.055H176.433L143.516 157.984H143.316V196.055H132.241V143.602Z" fill="white"/>
<path d="M29.7907 206.96H30.8193V214.817H29.6304L25.6227 208.478H25.5959V214.817H24.5673V206.96H25.823L29.764 213.299H29.7907V206.96Z" fill="white"/>
<path d="M34.5198 212.527L33.6915 214.817H32.5961L35.5618 206.96H36.7641L39.6096 214.817H38.4473L37.6725 212.527H34.5331H34.5198ZM37.2851 211.594L36.1229 208.132H36.0962L34.8404 211.594H37.2851Z" fill="white"/>
<path d="M43.8043 214.817H42.7356V207.906H40.0638V206.96H46.4628V207.906H43.791V214.817H43.8043Z" fill="white"/>
<path d="M49.2949 214.817H48.2262V206.96H49.2949V214.817Z" fill="white"/>
<path d="M55.2263 215.017C52.2873 215.017 51.3923 212.58 51.3923 210.889C51.3923 209.198 52.2873 206.761 55.2263 206.761C58.1653 206.761 59.0604 209.198 59.0604 210.889C59.0604 212.58 58.1653 215.017 55.2263 215.017ZM55.2263 207.693C53.5164 207.693 52.5011 209.011 52.5011 210.862C52.5011 212.713 53.5164 214.071 55.2263 214.071C56.9363 214.071 57.9516 212.726 57.9516 210.875C57.9516 209.024 56.9363 207.68 55.2263 207.68V207.693Z" fill="white"/>
<path d="M66.3811 206.96H67.4098V214.817H66.2208L62.2131 208.478H62.1864V214.817H61.1577V206.96H62.4135L66.3544 213.299H66.3811V206.96Z" fill="white"/>
<path d="M71.0969 212.527L70.2686 214.817H69.1732L72.1389 206.96H73.3412L76.1867 214.817H75.0244L74.2496 212.527H71.1102H71.0969ZM73.8622 211.594L72.6999 208.132H72.6732L71.4175 211.594H73.8622Z" fill="white"/>
<path d="M79.0188 213.872H82.9998V214.817H77.9501V206.96H79.0188V213.872Z" fill="white"/>
<path d="M89.9331 212.527L89.1049 214.817H88.0094L90.9751 206.96H92.1775L95.0229 214.817H93.8607L93.0859 212.527H89.9465H89.9331ZM92.6985 211.594L91.5362 208.132H91.5095L90.2538 211.594H92.6985Z" fill="white"/>
<path d="M101.943 209.331C101.649 207.946 100.5 207.693 99.7387 207.693C98.3226 207.693 97.1737 208.745 97.1737 210.809C97.1737 212.66 97.8283 214.071 99.7788 214.071C100.473 214.071 101.662 213.752 102.023 211.914H103.052C102.611 214.883 100.206 215.003 99.6185 215.003C97.8283 215.003 96.0783 213.845 96.0783 210.822C96.0783 208.412 97.4543 206.734 99.7387 206.734C101.769 206.734 102.825 207.986 102.972 209.304H101.943V209.331Z" fill="white"/>
<path d="M106.151 212.527L105.323 214.817H104.227L107.193 206.96H108.395L111.241 214.817H110.079L109.304 212.527H106.164H106.151ZM108.916 211.594L107.754 208.132H107.727L106.472 211.594H108.916Z" fill="white"/>
<path d="M113.004 206.96H116.197C118.254 206.96 119.51 208.518 119.51 210.782C119.51 212.54 118.735 214.817 116.157 214.817H113.018V206.96H113.004ZM114.073 213.912H116.13C117.506 213.912 118.415 212.833 118.415 210.849C118.415 208.865 117.506 207.879 116.063 207.879H114.073V213.912Z" fill="white"/>
<path d="M127.432 214.817H121.621V206.96H127.365V207.906H122.69V210.21H126.991V211.155H122.69V213.885H127.445V214.83L127.432 214.817Z" fill="white"/>
<path d="M131.119 206.96L133.35 213.605H133.377L135.621 206.96H137.131V214.817H136.102V210.183C136.102 209.957 136.142 208.945 136.142 208.225L133.911 214.83H132.856L130.638 208.225H130.598C130.598 208.945 130.638 209.957 130.638 210.183V214.817H129.609V206.96H131.119Z" fill="white"/>
<path d="M140.136 206.96L142.407 210.742L144.665 206.96H145.908L142.928 211.648V214.804H141.86V211.648L138.881 206.96H140.123H140.136Z" fill="white"/>
<path d="M155.018 215.017C152.079 215.017 151.184 212.58 151.184 210.889C151.184 209.198 152.079 206.761 155.018 206.761C157.957 206.761 158.852 209.198 158.852 210.889C158.852 212.58 157.957 215.017 155.018 215.017ZM155.018 207.693C153.308 207.693 152.293 209.011 152.293 210.862C152.293 212.713 153.308 214.071 155.018 214.071C156.728 214.071 157.744 212.726 157.744 210.875C157.744 209.024 156.728 207.68 155.018 207.68V207.693Z" fill="white"/>
<path d="M166.387 206.96V207.906H162.019V210.21H165.866V211.155H162.019V214.817H160.95V206.96H166.387Z" fill="white"/>
<path d="M47.1174 219.944H48.146V227.8H46.9571L42.9493 221.462H42.9226V227.8H41.894V219.944H43.1497L47.0907 226.282H47.1174V219.944Z" fill="white"/>
<path d="M56.7626 219.943V225.03C56.7626 226.628 55.7473 228 53.5965 228C51.4457 228 50.564 226.655 50.564 225.19V219.943H51.6327V224.897C51.6327 226.602 52.7015 227.068 53.65 227.068C54.5984 227.068 55.7073 226.615 55.7073 224.91V219.93H56.776L56.7626 219.943Z" fill="white"/>
<path d="M62.2532 227.8H61.1845V220.889H58.5126V219.944H64.9116V220.889H62.2398V227.8H62.2532Z" fill="white"/>
<path d="M67.7437 227.8H66.675V219.944H70.3087C71.6045 219.944 72.9003 220.397 72.9003 222.048C72.9003 223.206 72.2992 223.632 71.8049 223.925C72.1656 224.165 72.7801 224.298 72.7801 225.404V226.828C72.7801 227.268 72.8736 227.428 73.2076 227.601V227.787H71.9118C71.7648 227.294 71.7247 226.109 71.7247 225.816C71.7247 225.164 71.5912 224.418 70.3087 224.418H67.7437V227.787V227.8ZM67.7437 223.526H70.2018C70.9766 223.526 71.8049 223.313 71.8049 222.168C71.8049 221.022 70.9232 220.863 70.3888 220.863H67.7304V223.539L67.7437 223.526Z" fill="white"/>
<path d="M76.3203 227.8H75.2515V219.944H76.3203V227.8Z" fill="white"/>
<path d="M81.8109 227.8H80.7421V220.889H78.0703V219.944H84.4693V220.889H81.7975V227.8H81.8109Z" fill="white"/>
<path d="M87.3014 227.8H86.2327V219.944H87.3014V227.8Z" fill="white"/>
<path d="M93.2462 228C90.3072 228 89.4121 225.563 89.4121 223.872C89.4121 222.181 90.3072 219.744 93.2462 219.744C96.1852 219.744 97.0802 222.181 97.0802 223.872C97.0802 225.563 96.1852 228 93.2462 228ZM93.2462 220.676C91.5362 220.676 90.5076 221.995 90.5076 223.846C90.5076 225.696 91.5229 227.055 93.2462 227.055C94.9695 227.055 95.9714 225.71 95.9714 223.859C95.9714 222.008 94.9561 220.663 93.2462 220.663V220.676Z" fill="white"/>
<path d="M104.388 219.944H105.416V227.8H104.227L100.22 221.462H100.193V227.8H99.1642V219.944H100.42L104.361 226.282H104.388V219.944Z" fill="white"/>
<path d="M111.361 228C108.422 228 107.527 225.563 107.527 223.872C107.527 222.181 108.422 219.744 111.361 219.744C114.3 219.744 115.195 222.181 115.195 223.872C115.195 225.563 114.3 228 111.361 228ZM111.361 220.676C109.651 220.676 108.622 221.995 108.622 223.846C108.622 225.696 109.638 227.055 111.361 227.055C113.084 227.055 114.086 225.71 114.086 223.859C114.086 222.008 113.071 220.663 111.361 220.663V220.676Z" fill="white"/>
<path d="M118.348 226.855H122.329V227.8H117.279V219.944H118.348V226.855Z" fill="white"/>
<path d="M127.672 228C124.733 228 123.838 225.563 123.838 223.872C123.838 222.181 124.733 219.744 127.672 219.744C130.611 219.744 131.507 222.181 131.507 223.872C131.507 225.563 130.611 228 127.672 228ZM127.672 220.676C125.963 220.676 124.947 221.995 124.947 223.846C124.947 225.696 125.963 227.055 127.672 227.055C129.382 227.055 130.411 225.71 130.411 223.859C130.411 222.008 129.396 220.663 127.672 220.663V220.676Z" fill="white"/>
<path d="M137.024 223.592H140.47V227.787H139.789L139.522 226.761C138.988 227.494 137.999 227.987 136.93 227.987C134.178 227.987 133.283 225.67 133.283 223.792C133.283 221.914 134.446 219.73 136.997 219.73C138.467 219.73 140.096 220.569 140.323 222.327H139.295C138.961 220.956 137.812 220.676 136.944 220.676C135.528 220.676 134.379 221.794 134.379 223.859C134.379 225.443 134.9 227.094 136.997 227.094C137.385 227.094 138.026 227.054 138.614 226.588C139.295 226.042 139.469 225.35 139.469 224.511H137.01V223.605L137.024 223.592Z" fill="white"/>
<path d="M143.476 219.944L145.747 223.726L148.005 219.944H149.247L146.268 224.631V227.787H145.2V224.631L142.22 219.944H143.463H143.476Z" fill="white"/>
<path d="M96.5058 62.8394H91.2824V131.271H96.5058V62.8394Z" fill="white"/>
<path d="M49.3617 63.9312L87.6621 86.5953L87.3682 96.7556V97.9141L49.335 75.7959C49.3617 65.569 49.3751 74.5442 49.3617 63.9445V63.9312Z" fill="white"/>
<path d="M49.669 65.729L87.6087 88.4198C87.6087 88.4198 87.6354 88.2866 87.3682 97.9143L87.248 97.102L49.335 75.8094C49.6823 66.3149 49.335 75.3832 49.669 65.7423V65.729Z" fill="white"/>
<path d="M87.3682 97.9139L49.3216 76.1685L49.3751 74.5439L87.4216 96.0896L87.3548 97.9139H87.3682Z" fill="white"/>
<path d="M103.265 31.4529C107.033 39.2029 104.788 47.5655 97.668 52.4259C96.773 53.0384 95.8245 53.5711 94.5954 54.3434C95.8779 47.0861 94.7557 40.5079 91.9236 34.1827H91.8702L92.6717 20.3472C92.6717 20.3472 92.7118 20.4271 92.8053 20.4936C96.8264 23.5297 100.994 26.7922 103.265 31.4529Z" fill="white"/>
<path d="M91.8702 34.1826H91.9236C91.416 40.7075 90.4675 47.3257 89.9465 54.1036C87.3281 52.9717 85.4044 51.2273 83.6678 49.3098C77.3088 42.2655 77.7764 32.5979 84.9235 25.8067C86.9541 23.8758 90.2404 22.158 92.5248 20.5068C92.6317 20.4269 92.6584 20.387 92.6851 20.3604L91.8836 34.1959L91.8702 34.1826Z" fill="white"/>
<path d="M87.5419 61.0679C87.5419 61.0679 84.7632 60.4953 79.66 58.5911C75.7993 57.1396 71.8049 56.0211 67.8506 54.8359C65.5796 54.1568 63.3085 53.491 61.0242 52.8119C59.5146 52.3724 56.7893 52.0795 55.5469 51.1207C59.5012 54.1169 63.6158 56.9133 68.0243 59.177C73.3813 61.9068 79.139 64.5701 84.9502 66.208C83.4941 66.4343 82.1582 67.0469 80.7555 67.4863C80.0207 67.7127 79.2459 67.9124 78.5111 68.1921H77.1619C75.8661 67.9124 74.5168 67.9391 73.1809 67.9391C72.9137 67.9391 72.6332 67.9258 72.366 67.9124C72.2324 67.8059 72.0454 67.726 71.845 67.6994C68.7858 67.3132 65.7399 66.714 62.7875 65.8484C62.4669 65.7552 62.2131 65.8484 62.0394 66.0349C61.0509 65.7286 60.0757 65.3957 59.1138 65.0095C58.8466 64.903 59.1272 65.0761 58.9268 65.2758V65.3158C55.8141 63.6379 52.1537 61.6538 49.2949 59.6298V42.9179C49.2949 42.9179 57.6042 42.3453 70.7495 46.8063C83.9082 51.2805 87.4884 61.1079 87.4884 61.1079L87.5419 61.0679Z" fill="white"/>
<path d="M85.6048 66.3815C85.6048 66.3815 85.5781 66.3815 85.5647 66.3948C85.5647 66.3948 85.5647 66.3815 85.5514 66.3682C85.5647 66.3682 85.5914 66.3682 85.6048 66.3815Z" fill="white"/>
<path d="M95.584 62.9454L94.1145 67.939L55.5069 51.2139L95.584 62.9454Z" fill="white"/>
<path d="M49.3483 44.4495C49.3483 44.3696 52.7816 44.383 53.0087 44.383C54.9992 44.3963 57.0031 44.5294 58.9668 44.8224C66.1941 45.8611 73.4481 47.8718 79.2325 52.5591C85.2708 57.4595 85.0036 59.8564 85.0036 59.8564L87.3014 60.5222C87.3014 60.5222 84.9769 50.6815 70.7362 46.154C56.4821 41.6398 49.3483 42.785 49.3483 42.785V44.4495Z" fill="white"/>
<path d="M49.3483 42.7852C49.3483 42.7852 50.2835 45.1421 51.9266 47.4725C53.5698 49.7895 55.5069 51.2276 55.5069 51.2276L62.4669 55.9549L67.383 58.7912C67.383 58.7912 64.7647 64.0778 62.1062 64.8501C59.4478 65.6224 57.8848 64.7835 57.8848 64.7835L49.3483 59.6168V42.7985V42.7852Z" fill="white"/>
<path d="M75.7191 62.6395C69.1197 59.7499 67.3831 58.7778 67.3831 58.7778C67.3831 58.7778 64.3639 62.8659 60.5031 64.1176C59.1004 64.5704 58.2588 64.7968 57.7645 64.7035C57.7645 64.7035 57.7645 64.7169 57.7512 64.7302C60.0489 65.8354 68.2514 69.5773 73.7954 69.3775C80.2879 69.1512 85.4979 66.3548 85.4979 66.3548C85.4979 66.3548 82.7326 65.7023 75.7191 62.6395Z" fill="white"/>
<path d="M49.3483 41.9727V42.7983C49.3483 42.7983 54.7721 42.5186 60.0356 43.5306C65.299 44.5427 71.4976 46.4336 71.4976 46.4336C71.4976 46.4336 67.3296 44.7158 62.4803 43.504C57.297 42.199 49.3483 41.986 49.3483 41.986V41.9727Z" fill="white"/>
<path d="M100.126 61.3078C100.126 61.3078 102.905 60.7352 108.008 58.831C111.869 57.3795 115.863 56.261 119.817 55.0758C122.088 54.3967 124.359 53.7309 126.644 53.0518C128.153 52.6123 130.879 52.3194 132.121 51.3606C128.167 54.3567 124.052 57.1531 119.644 59.4169C114.287 62.1467 108.529 64.81 102.718 66.4479C104.174 66.6742 105.51 67.2868 106.913 67.7262C107.661 67.9526 108.422 68.1523 109.157 68.432H110.506C111.802 68.1523 113.151 68.179 114.487 68.179C114.754 68.179 115.035 68.1656 115.302 68.1523C115.436 68.0325 115.623 67.9659 115.823 67.9393C118.882 67.5531 121.928 66.9539 124.88 66.0883C125.201 65.9951 125.455 66.0883 125.629 66.2747C126.617 65.9685 127.592 65.6356 128.554 65.2494C128.821 65.1429 128.541 65.316 128.741 65.5157V65.5424C131.854 63.8645 135.514 61.8804 138.373 59.8563V43.1445C138.373 43.1445 130.064 42.5719 116.918 47.0328C103.76 51.5071 100.18 61.3344 100.18 61.3344L100.126 61.3078Z" fill="white"/>
<path d="M102.063 66.6076C102.063 66.6076 102.09 66.6076 102.103 66.6209C102.103 66.6209 102.103 66.6076 102.117 66.5942C102.103 66.5942 102.077 66.5942 102.063 66.6076Z" fill="white"/>
<path d="M92.084 63.1852L93.5534 68.1788L132.161 51.4536L92.084 63.1852Z" fill="white"/>
<path d="M138.32 44.6893C138.32 44.6094 134.886 44.6227 134.659 44.6227C132.669 44.636 130.665 44.7692 128.701 45.0621C121.474 46.1008 114.22 48.1116 108.435 52.7989C102.397 57.6992 102.664 60.0961 102.664 60.0961L100.367 60.7619C100.367 60.7619 102.691 50.9213 116.932 46.3938C131.186 41.8796 138.32 43.0248 138.32 43.0248V44.6893Z" fill="white"/>
<path d="M138.32 43.0244C138.32 43.0244 137.385 45.3814 135.741 47.7117C134.098 50.0287 132.161 51.4669 132.161 51.4669L125.201 56.1941L120.285 59.0305C120.285 59.0305 122.903 64.317 125.562 65.0894C128.22 65.8617 129.783 65.0228 129.783 65.0228L138.32 59.8561V43.0377V43.0244Z" fill="white"/>
<path d="M111.949 62.8793C118.548 59.9897 120.285 59.0176 120.285 59.0176C120.285 59.0176 123.304 63.1057 127.165 64.3574C128.568 64.8101 129.409 65.0365 129.903 64.9433C129.903 64.9433 129.903 64.9566 129.917 64.9699C127.619 66.0752 119.417 69.817 113.873 69.6173C107.38 69.3909 102.17 66.5945 102.17 66.5945C102.17 66.5945 104.935 65.942 111.949 62.8793Z" fill="white"/>
<path d="M138.32 42.1992V43.0115C138.32 43.0115 132.896 42.7319 127.632 43.7439C122.369 44.7559 116.17 46.6468 116.17 46.6468C116.17 46.6468 120.338 44.929 125.188 43.7173C130.371 42.4123 138.32 42.1992 138.32 42.1992Z" fill="white"/>
<path d="M49.375 79.5645L87.6754 102.229L87.3816 112.389V113.547L49.3483 91.4292C49.375 81.2024 49.3884 90.1775 49.375 79.5778V79.5645Z" fill="white"/>
<path d="M49.6823 81.3618L87.622 104.053C87.622 104.053 87.6487 103.919 87.3816 113.547L87.2613 112.735L49.3483 91.4422C49.6957 81.9477 49.3483 91.0161 49.6823 81.3751V81.3618Z" fill="white"/>
<path d="M87.3816 113.534L49.335 91.7886L49.3884 90.1641L87.435 111.71L87.3682 113.534H87.3816Z" fill="white"/>
<path d="M138.453 80.0303L100.38 102.694L100.674 112.855V114.013L138.48 91.895C138.453 81.6682 138.44 90.6433 138.453 80.0436V80.0303Z" fill="white"/>
<path d="M138.146 81.8149L100.433 104.506C100.433 104.506 100.407 104.373 100.674 114L100.794 113.188L138.48 91.8953C138.133 82.4009 138.48 91.4692 138.146 81.8283V81.8149Z" fill="white"/>
<path d="M100.674 114L138.48 92.2545L138.426 90.6299L100.607 112.176L100.674 114Z" fill="white"/>
<path d="M138.573 63.4385L100.273 86.1027L100.567 96.2629V97.4214L138.6 75.3032C138.573 65.0764 138.56 74.0515 138.573 63.4518V63.4385Z" fill="white"/>
<path d="M138.266 65.2358L100.326 87.9266C100.326 87.9266 100.3 87.7935 100.567 97.4211L100.687 96.6088L138.6 75.3162C138.253 65.8218 138.6 74.8901 138.266 65.2492V65.2358Z" fill="white"/>
<path d="M100.567 97.4212L138.614 75.6758L138.56 74.0513L100.5 95.5969L100.567 97.4212Z" fill="white"/>
<path d="M102.958 79.7243C104.561 79.7243 105.844 78.4326 105.844 76.848C105.844 75.2634 104.548 73.9717 102.958 73.9717C101.368 73.9717 100.073 75.2634 100.073 76.848C100.073 78.4326 101.368 79.7243 102.958 79.7243Z" fill="white"/>
<path d="M102.945 77.8065C103.479 77.8065 103.92 77.367 103.92 76.8344C103.92 76.3017 103.479 75.8623 102.945 75.8623C102.41 75.8623 101.97 76.3017 101.97 76.8344C101.97 77.367 102.41 77.8065 102.945 77.8065Z" fill="white"/>
<path d="M69.5205 39.6291C71.1236 39.6291 72.4061 38.3374 72.4061 36.7528C72.4061 35.1681 71.1102 33.8765 69.5205 33.8765C67.9308 33.8765 66.6349 35.1681 66.6349 36.7528C66.6349 38.3374 67.9308 39.6291 69.5205 39.6291Z" fill="white"/>
<path d="M69.5205 37.7113C70.0549 37.7113 70.4957 37.2718 70.4957 36.7392C70.4957 36.2065 70.0549 35.7671 69.5205 35.7671C68.9861 35.7671 68.5453 36.2065 68.5453 36.7392C68.5453 37.2718 68.9861 37.7113 69.5205 37.7113Z" fill="white"/>
<path d="M83.3872 80.6561C84.1887 80.6561 84.83 80.0169 84.83 79.2179C84.83 78.419 84.1887 77.7798 83.3872 77.7798C82.5857 77.7798 81.9444 78.419 81.9444 79.2179C81.9444 80.0169 82.5857 80.6561 83.3872 80.6561Z" fill="white"/>
<path d="M108.903 73.4388C109.437 73.4388 109.878 72.9994 109.878 72.4667C109.878 71.9341 109.437 71.4946 108.903 71.4946C108.369 71.4946 107.928 71.9341 107.928 72.4667C107.928 72.9994 108.369 73.4388 108.903 73.4388Z" fill="white"/>
<path d="M118.094 39.5891C120.752 39.5891 122.903 37.4452 122.903 34.7953C122.903 32.1454 120.752 30.0015 118.094 30.0015C115.436 30.0015 113.285 32.1454 113.285 34.7953C113.285 37.4452 115.436 39.5891 118.094 39.5891Z" fill="white"/>
<path d="M118.094 36.4066C118.989 36.4066 119.71 35.6875 119.71 34.7953C119.71 33.9032 118.989 33.1841 118.094 33.1841C117.199 33.1841 116.478 33.9032 116.478 34.7953C116.478 35.6875 117.199 36.4066 118.094 36.4066Z" fill="white"/>
<path d="M93.7405 136.105L34.6267 102.082V34.0229L93.7405 0L152.854 34.0229V102.082L93.7405 136.105ZM41.4398 98.1537L93.7405 128.262L146.041 98.1537V37.9512L93.7405 7.84324L41.4398 37.9512V98.167V98.1537Z" fill="white"/>
</g>
<defs>
<clipPath id="clip0_20_648">
<rect width="187" height="228" fill="white"/>
</clipPath>
</defs>
</svg>
