<svg width="160" height="60" viewBox="0 0 160 60" fill="none" xmlns="http://www.w3.org/2000/svg">
<g clip-path="url(#clip0_3_30654)">
<path d="M27.6149 27.6923H25.29V57.8598H27.6149V27.6923Z" fill="#3B3B3A"/>
<path d="M6.57762 28.1761L23.6644 38.1699L23.5321 42.6551V43.1575L6.55872 33.4057C6.55872 28.902 6.55872 32.8474 6.55872 28.1761H6.57762Z" fill="#80A73E"/>
<path d="M6.70993 28.9764L23.6455 38.9702C23.6455 38.9702 23.6455 38.9144 23.5321 43.1576L23.4754 42.804L6.55872 33.4057C6.70993 29.2184 6.55872 33.2196 6.70993 28.9764Z" fill="url(#paint0_linear_3_30654)"/>
<path d="M23.5321 43.1576L6.55872 33.5732V32.8474L23.5699 42.3387V43.139L23.5321 43.1576Z" fill="#3B5020"/>
<path d="M30.6202 13.8648C32.3025 17.2891 31.3007 20.974 28.1253 23.1142C27.7283 23.3747 27.3125 23.6167 26.7455 23.9517C27.3125 20.7507 26.8211 17.8474 25.5547 15.0559H25.5358L25.8949 8.95166C25.8949 8.95166 25.8949 8.98888 25.9516 9.00749C27.7472 10.3474 29.5996 11.7804 30.6202 13.8276V13.8648Z" fill="#E2BD9C"/>
<path d="M25.5357 15.0745H25.5546C25.3278 17.9591 24.912 20.8623 24.6663 23.8586C23.4944 23.3561 22.6438 22.5931 21.8688 21.737C19.0336 18.6291 19.2416 14.3673 22.4359 11.371C23.3432 10.5149 24.8175 9.77052 25.8381 9.0261C25.8759 8.98888 25.8948 8.97027 25.9137 8.95166L25.5546 15.0559L25.5357 15.0745Z" fill="#C59671"/>
<path d="M23.6078 26.9106C23.6078 26.9106 22.3603 26.6687 20.0921 25.8126C18.3721 25.1799 16.5765 24.6774 14.8186 24.1563C13.798 23.8585 12.7962 23.5608 11.7755 23.263C11.0951 23.0769 9.88537 22.9466 9.33723 22.5186C11.0951 23.8399 12.9285 25.0682 14.9131 26.0732C17.2947 27.2829 19.8653 28.4553 22.4737 29.1625C21.831 29.2556 21.2262 29.5347 20.6024 29.7208C20.2622 29.8139 19.922 29.9069 19.6007 30.0372H18.9958C18.4099 29.9069 17.805 29.9255 17.2191 29.9255C17.1057 29.9255 16.9734 29.9255 16.86 29.9255C16.8033 29.8697 16.7088 29.8511 16.6332 29.8325C15.2723 29.665 13.9114 29.4044 12.5883 29.0136C12.456 28.9764 12.3426 29.0136 12.248 29.0881C11.8133 28.9578 11.3786 28.8089 10.9439 28.6414C10.8304 28.5856 10.9439 28.66 10.8682 28.7531C9.48845 28.0273 7.84403 27.1526 6.57764 26.2593V18.8895C6.57764 18.8895 10.2823 18.629 16.1606 20.6017C22.0389 22.5744 23.6267 26.9106 23.6267 26.9106H23.6078Z" fill="url(#paint1_linear_3_30654)"/>
<path d="M27.199 27.7482L26.5375 29.9442L9.29944 22.5745L27.1801 27.7482H27.199Z" fill="#3B3B3A"/>
<path d="M6.55872 19.5968C6.55872 19.5968 8.08973 19.5782 8.20313 19.5782C9.0915 19.5782 9.97986 19.6526 10.8682 19.7643C14.1004 20.2109 17.3325 21.1042 19.9031 23.17C22.5871 25.3288 22.4737 26.3896 22.4737 26.3896L23.4943 26.6874C23.4943 26.6874 22.4548 22.3511 16.1039 20.3598C9.75305 18.3685 6.55872 18.871 6.55872 18.871V19.5968Z" fill="#80A73E"/>
<path d="M6.5588 18.8523C6.5588 18.8523 6.97463 19.8945 7.71178 20.9181C8.44893 21.9416 9.2995 22.5744 9.2995 22.5744L12.3993 24.6587L14.5919 25.9056C14.5919 25.9056 13.42 28.2319 12.2292 28.5855C11.0384 28.9205 10.3391 28.5483 10.3391 28.5483L6.521 26.2779V18.8709L6.5588 18.8523Z" fill="url(#paint2_linear_3_30654)"/>
<path d="M18.3343 27.6179C15.3857 26.3524 14.6107 25.9058 14.6107 25.9058C14.6107 25.9058 13.2687 27.711 11.5487 28.2507C10.9249 28.4554 10.5469 28.5484 10.339 28.5112C11.3597 28.9951 15.0265 30.6514 17.5026 30.5584C20.3945 30.4653 22.7194 29.237 22.7194 29.237C22.7194 29.237 21.4908 28.9579 18.3532 27.5993L18.3343 27.6179Z" fill="#3B3B3A"/>
<path d="M6.55872 18.4987V18.8523C6.55872 18.8523 8.97809 18.722 11.3219 19.1687C13.6656 19.6153 16.4441 20.4528 16.4441 20.4528C16.4441 20.4528 14.5729 19.6898 12.4181 19.1501C10.1122 18.5732 6.55872 18.4801 6.55872 18.4801V18.4987Z" fill="#3B3B3A"/>
<path d="M29.2215 27.0223C29.2215 27.0223 30.469 26.7804 32.7372 25.9243C34.4572 25.2916 36.2528 24.7891 38.0107 24.268C39.0313 23.9702 40.0331 23.6725 41.0538 23.3747C41.7342 23.1886 42.9439 23.0583 43.4921 22.6303C41.7342 23.9516 39.9008 25.1799 37.9162 26.1849C35.5346 27.3945 32.9451 28.567 30.3556 29.2742C30.9983 29.3672 31.6031 29.6464 32.2269 29.8325C32.5671 29.9256 32.9073 30.0186 33.2286 30.1489H33.8335C34.4194 30.0186 35.0243 30.0372 35.6102 30.0372C35.7236 30.0372 35.8559 30.0372 35.9693 30.0372C36.026 29.9814 36.1205 29.9628 36.1961 29.9442C37.557 29.7767 38.9179 29.5161 40.241 29.1253C40.3733 29.0881 40.4867 29.1253 40.5813 29.1998C41.016 29.0695 41.4507 28.9206 41.8854 28.7531C41.9989 28.6973 41.8854 28.7717 41.9611 28.8648C43.3409 28.139 44.9853 27.2643 46.2517 26.371V19.0012C46.2517 19.0012 42.547 18.7407 36.6687 20.7134C30.7904 22.6861 29.2026 27.0223 29.2026 27.0223H29.2215Z" fill="url(#paint3_linear_3_30654)"/>
<path d="M25.6302 27.8599L26.2918 30.0559L43.5109 22.6862L25.6302 27.8599Z" fill="#3B3B3A"/>
<path d="M46.2706 19.6898C46.2706 19.6898 44.7396 19.6712 44.6262 19.6712C43.7378 19.6712 42.8494 19.7456 41.9611 19.8573C38.7289 20.3039 35.4968 21.1972 32.9262 23.263C30.2422 25.4218 30.3556 26.4826 30.3556 26.4826L29.335 26.7804C29.335 26.7804 30.3745 22.4441 36.7254 20.4528C43.0762 18.4615 46.2706 18.964 46.2706 18.964V19.6898Z" fill="#80A73E"/>
<path d="M46.2705 18.964C46.2705 18.964 45.8547 20.0062 45.1175 21.0297C44.3804 22.0533 43.5298 22.6861 43.5298 22.6861L40.43 24.7704L38.2374 26.0173C38.2374 26.0173 39.4093 28.3436 40.6001 28.6972C41.7909 29.0322 42.4902 28.66 42.4902 28.66L46.3083 26.3895V18.9826L46.2705 18.964Z" fill="url(#paint4_linear_3_30654)"/>
<path d="M34.495 27.7109C37.4436 26.4454 38.2185 25.9988 38.2185 25.9988C38.2185 25.9988 39.5605 27.804 41.2806 28.3437C41.9043 28.5484 42.2823 28.6415 42.4902 28.6042C41.4696 29.0881 37.8027 30.7444 35.3266 30.6514C32.4347 30.5583 30.1099 29.33 30.1099 29.33C30.1099 29.33 31.3385 29.0509 34.4761 27.6923L34.495 27.7109Z" fill="#3B3B3A"/>
<path d="M46.2705 18.6104V18.964C46.2705 18.964 43.8512 18.8337 41.5074 19.2804C39.1636 19.727 36.3851 20.5645 36.3851 20.5645C36.3851 20.5645 38.2564 19.8015 40.4111 19.2618C42.7171 18.6849 46.2705 18.5918 46.2705 18.5918V18.6104Z" fill="#3B3B3A"/>
<path d="M6.57764 35.062L23.6645 45.0558L23.5322 49.5409V50.0434L6.57764 40.2915C6.57764 35.7878 6.57764 39.7332 6.57764 35.062Z" fill="#E2BD9C"/>
<path d="M6.72885 35.8623L23.6645 45.8561C23.6645 45.8561 23.6645 45.8003 23.5511 50.0434L23.4944 49.6898L6.57764 40.2916C6.72885 36.1042 6.57764 40.1055 6.72885 35.8623Z" fill="url(#paint5_linear_3_30654)"/>
<path d="M23.5321 50.0434L6.55872 40.4591V39.7333L23.5699 49.2246L23.5321 50.0248V50.0434Z" fill="#B5825B"/>
<path d="M46.3273 35.2667L29.335 45.2605L29.4673 49.7456V50.2481L46.3273 40.4963C46.3273 35.9925 46.3273 39.9379 46.3273 35.2667Z" fill="#E2BD9C"/>
<path d="M46.1949 36.067L29.3727 46.0608C29.3727 46.0608 29.3727 46.005 29.4861 50.2482L29.5428 49.8946L46.365 40.5149C46.2138 36.3276 46.365 40.3288 46.2138 36.0856L46.1949 36.067Z" fill="url(#paint6_linear_3_30654)"/>
<path d="M29.4673 50.2482L46.3462 40.6638V39.938L29.4484 49.4293L29.4862 50.2296L29.4673 50.2482Z" fill="#B5825B"/>
<path d="M46.3839 27.9714L29.2971 37.9652L29.4294 42.4503V42.9528L46.4028 33.201C46.4028 28.6972 46.4028 32.6427 46.4028 27.9714H46.3839Z" fill="#80A73E"/>
<path d="M46.2517 28.7531L29.316 38.7468C29.316 38.7468 29.316 38.691 29.4294 42.9342L29.4862 42.5806L46.4029 33.2009C46.2517 29.0136 46.4029 33.0148 46.2517 28.7717V28.7531Z" fill="url(#paint7_linear_3_30654)"/>
<path d="M29.4294 42.9342L46.4028 33.3498V32.624L29.3916 42.1153L29.4294 42.9156V42.9342Z" fill="#3B5020"/>
<path d="M30.4879 35.1365C31.2062 35.1365 31.7732 34.5596 31.7732 33.871C31.7732 33.1824 31.1873 32.6055 30.4879 32.6055C29.7886 32.6055 29.2026 33.1824 29.2026 33.871C29.2026 34.5596 29.7886 35.1365 30.4879 35.1365Z" fill="url(#paint8_linear_3_30654)"/>
<path d="M30.4878 34.299C30.7335 34.299 30.9226 34.1129 30.9226 33.8709C30.9226 33.629 30.7335 33.4429 30.4878 33.4429C30.2421 33.4429 30.0531 33.629 30.0531 33.8709C30.0531 34.1129 30.2421 34.299 30.4878 34.299Z" fill="#3B3B3A"/>
<path d="M15.5747 17.4566C16.293 17.4566 16.86 16.8796 16.86 16.191C16.86 15.5025 16.2741 14.9255 15.5747 14.9255C14.8754 14.9255 14.2894 15.5025 14.2894 16.191C14.2894 16.8796 14.8754 17.4566 15.5747 17.4566Z" fill="url(#paint9_linear_3_30654)"/>
<path d="M15.5747 16.6191C15.8205 16.6191 16.0095 16.433 16.0095 16.1911C16.0095 15.9492 15.8205 15.7631 15.5747 15.7631C15.329 15.7631 15.14 15.9492 15.14 16.1911C15.14 16.433 15.329 16.6191 15.5747 16.6191Z" fill="#3B3B3A"/>
<path d="M21.7554 35.5459C22.1146 35.5459 22.3981 35.2667 22.3981 34.9131C22.3981 34.5596 22.1146 34.2804 21.7554 34.2804C21.3963 34.2804 21.1128 34.5596 21.1128 34.9131C21.1128 35.2667 21.3963 35.5459 21.7554 35.5459Z" fill="url(#paint10_linear_3_30654)"/>
<path d="M33.153 32.3635C33.3987 32.3635 33.5877 32.1774 33.5877 31.9355C33.5877 31.6935 33.3987 31.5074 33.153 31.5074C32.9073 31.5074 32.7183 31.6935 32.7183 31.9355C32.7183 32.1774 32.9073 32.3635 33.153 32.3635Z" fill="#3B3B3A"/>
<path d="M37.2546 17.4566C38.4454 17.4566 39.3905 16.5074 39.3905 15.3536C39.3905 14.1997 38.4265 13.2506 37.2546 13.2506C36.0827 13.2506 35.1188 14.1997 35.1188 15.3536C35.1188 16.5074 36.0827 17.4566 37.2546 17.4566Z" fill="url(#paint11_linear_3_30654)"/>
<path d="M37.2546 16.0422C37.6516 16.0422 37.9729 15.7258 37.9729 15.335C37.9729 14.9442 37.6516 14.6278 37.2546 14.6278C36.8577 14.6278 36.5364 14.9442 36.5364 15.335C36.5364 15.7258 36.8577 16.0422 37.2546 16.0422Z" fill="#3B3B3A"/>
<path d="M26.3674 60L0 45V15L26.3674 0L52.7348 15V45L26.3674 60ZM3.04312 43.2692L26.3863 56.5385L49.7295 43.2692V16.7308L26.3674 3.46154L3.04312 16.7308V43.2692Z" fill="#314419"/>
<path d="M59.1802 15.6328H64.8884L82.6368 35.9368H82.7502V15.6328H88.723V43.5671H83.0148L65.2664 23.3003H65.153V43.5671H59.1802V15.6328Z" fill="#314419"/>
<path d="M106.66 15.6328H112.576L126.185 43.5671H119.835L116.602 36.9417H102.578L99.3455 43.5671H92.9946L106.66 15.6328ZM115.147 33.0708L109.609 21.2532H109.496L104.071 33.0708H115.147Z" fill="#314419"/>
<path d="M130.476 15.6328H136.184L153.933 35.9368H154.046V15.6328H160.019V43.5671H154.311L136.562 23.3003H136.449V43.5671H130.476V15.6328Z" fill="#314419"/>
<path d="M62.3367 48.0334H62.9605V52.7233H62.2422L59.8228 48.9454V52.7233H59.1991V48.0334H59.9551L62.3367 51.8114V48.0334Z" fill="#314419"/>
<path d="M65.1908 51.3461L64.6994 52.7233H64.0378L65.8335 48.0334H66.5517L68.2717 52.7233H67.5724L67.0999 51.3461H65.1908ZM66.8541 50.7878L66.1548 48.722L65.3987 50.7878H66.873H66.8541Z" fill="#314419"/>
<path d="M70.8046 52.7233H70.1619V48.5918H68.5553V48.0334H72.4301V48.5918H70.8235V52.7233H70.8046Z" fill="#314419"/>
<path d="M74.1312 52.7233H73.4885V48.0334H74.1312V52.7233Z" fill="#314419"/>
<path d="M77.7036 52.8536C75.9268 52.8536 75.3976 51.402 75.3976 50.3784C75.3976 49.3548 75.9268 47.9032 77.7036 47.9032C79.4803 47.9032 80.0095 49.3548 80.0095 50.3784C80.0095 51.402 79.4803 52.8536 77.7036 52.8536ZM77.7036 48.4801C76.664 48.4801 76.0591 49.2618 76.0591 50.3784C76.0591 51.495 76.6829 52.2953 77.7036 52.2953C78.7242 52.2953 79.348 51.495 79.348 50.397C79.348 49.299 78.7242 48.4987 77.7036 48.4987V48.4801Z" fill="#314419"/>
<path d="M84.4513 48.0334H85.0751V52.7233H84.3568L81.9375 48.9454V52.7233H81.3137V48.0334H82.0698L84.4513 51.8114V48.0334Z" fill="#314419"/>
<path d="M87.3054 51.3461L86.814 52.7233H86.1525L87.9481 48.0334H88.6663L90.3864 52.7233H89.687L89.2145 51.3461H87.3054ZM88.9688 50.7878L88.2694 48.722L87.5134 50.7878H88.9877H88.9688Z" fill="#314419"/>
<path d="M92.0875 52.165H94.4879V52.7233H91.4448V48.0334H92.0875V52.165Z" fill="#314419"/>
<path d="M98.684 51.3461L98.1926 52.7233H97.531L99.3266 48.0334H100.045L101.765 52.7233H101.066L100.593 51.3461H98.684ZM100.347 50.7878L99.648 48.722L98.8919 50.7878H100.366H100.347Z" fill="#314419"/>
<path d="M105.942 49.4478C105.772 48.6289 105.073 48.4801 104.619 48.4801C103.768 48.4801 103.069 49.1128 103.069 50.3411C103.069 51.4391 103.466 52.2952 104.638 52.2952C105.054 52.2952 105.772 52.1091 105.999 51.0111H106.623C106.358 52.7791 104.903 52.8535 104.543 52.8535C103.466 52.8535 102.408 52.1649 102.408 50.3597C102.408 48.9267 103.239 47.9218 104.619 47.9218C105.848 47.9218 106.471 48.6662 106.566 49.4664H105.942V49.4478Z" fill="#314419"/>
<path d="M108.494 51.3461L108.002 52.7233H107.341L109.136 48.0334H109.855L111.575 52.7233H110.875L110.403 51.3461H108.494ZM110.157 50.7878L109.458 48.722L108.702 50.7878H110.176H110.157Z" fill="#314419"/>
<path d="M112.633 48.0335H114.561C115.809 48.0335 116.565 48.964 116.565 50.304C116.565 51.3648 116.092 52.7047 114.542 52.7047H112.633V48.0149V48.0335ZM113.276 52.1836H114.523C115.355 52.1836 115.903 51.5323 115.903 50.3598C115.903 49.1873 115.355 48.5918 114.486 48.5918H113.276V52.2022V52.1836Z" fill="#314419"/>
<path d="M121.347 52.7233H117.831V48.0334H121.309V48.5918H118.474V49.9689H121.082V50.5272H118.474V52.1464H121.347V52.7047V52.7233Z" fill="#314419"/>
<path d="M123.577 48.0334L124.938 51.9975L126.299 48.0334H127.206V52.7233H126.582V49.9503C126.582 49.82 126.601 49.2059 126.601 48.7779L125.259 52.7233H124.617L123.275 48.7779H123.256C123.256 49.2059 123.275 49.82 123.275 49.9503V52.7233H122.651V48.0334H123.558H123.577Z" fill="#314419"/>
<path d="M129.04 48.0334L130.401 50.2853L131.761 48.0334H132.517L130.722 50.8436V52.7233H130.079V50.8436L128.284 48.0334H129.04Z" fill="#314419"/>
<path d="M138.037 52.8536C136.26 52.8536 135.731 51.402 135.731 50.3784C135.731 49.3548 136.26 47.9032 138.037 47.9032C139.813 47.9032 140.343 49.3548 140.343 50.3784C140.343 51.402 139.813 52.8536 138.037 52.8536ZM138.037 48.4801C136.997 48.4801 136.392 49.2618 136.392 50.3784C136.392 51.495 137.016 52.2953 138.037 52.2953C139.057 52.2953 139.681 51.495 139.681 50.397C139.681 49.299 139.057 48.4987 138.037 48.4987V48.4801Z" fill="#314419"/>
<path d="M144.898 48.0334V48.5918H142.252V49.9689H144.577V50.5272H142.252V52.7233H141.609V48.0334H144.898Z" fill="#314419"/>
<path d="M62.3367 54.3424H62.9605V59.0322H62.2422L59.8228 55.2543V59.0322H59.1991V54.3424H59.9551L62.3367 58.1203V54.3424Z" fill="#314419"/>
<path d="M68.1584 54.3424V57.3759C68.1584 58.325 67.5535 59.1439 66.2493 59.1439C64.9451 59.1439 64.4159 58.3436 64.4159 57.469V54.3424H65.0585V57.3015C65.0585 58.3064 65.7012 58.6042 66.2682 58.6042C66.8353 58.6042 67.5157 58.325 67.5157 57.3201V54.3424H68.1584Z" fill="#314419"/>
<path d="M71.485 59.0322H70.8423V54.9007H69.2357V54.3424H73.1105V54.9007H71.5039V59.0322H71.485Z" fill="#314419"/>
<path d="M74.8116 59.0322H74.1689V54.3424H76.3615C77.1365 54.3424 77.9303 54.6216 77.9303 55.6079C77.9303 56.2965 77.5712 56.557 77.2688 56.7245C77.4767 56.8734 77.8547 56.9479 77.8547 57.5992V58.4553C77.8547 58.7159 77.9114 58.8089 78.1193 58.9206V59.0322H77.3255C77.231 58.7345 77.2121 58.0273 77.2121 57.8598C77.2121 57.469 77.1365 57.0223 76.3615 57.0223H74.8116V59.0322ZM74.8116 56.4826H76.3048C76.7773 56.4826 77.2688 56.3523 77.2688 55.6637C77.2688 54.9752 76.7395 54.8821 76.4182 54.8821H74.8116V56.4826Z" fill="#314419"/>
<path d="M79.9905 59.0322H79.3479V54.3424H79.9905V59.0322Z" fill="#314419"/>
<path d="M83.3173 59.0322H82.6746V54.9007H81.068V54.3424H84.9428V54.9007H83.3362V59.0322H83.3173Z" fill="#314419"/>
<path d="M86.6249 59.0322H85.9823V54.3424H86.6249V59.0322Z" fill="#314419"/>
<path d="M90.2162 59.1439C88.4395 59.1439 87.9103 57.6922 87.9103 56.6687C87.9103 55.6451 88.4395 54.1935 90.2162 54.1935C91.993 54.1935 92.5222 55.6451 92.5222 56.6687C92.5222 57.6922 91.993 59.1439 90.2162 59.1439ZM90.2162 54.7704C89.1767 54.7704 88.5718 55.552 88.5718 56.6687C88.5718 57.7853 89.1956 58.5855 90.2162 58.5855C91.2369 58.5855 91.8607 57.7853 91.8607 56.6873C91.8607 55.5893 91.2369 54.789 90.2162 54.789V54.7704Z" fill="#314419"/>
<path d="M96.9451 54.3424H97.5689V59.0322H96.8506L94.4312 55.2543V59.0322H93.8075V54.3424H94.5635L96.9451 58.1203V54.3424Z" fill="#314419"/>
<path d="M101.16 59.1439C99.3834 59.1439 98.8541 57.6922 98.8541 56.6687C98.8541 55.6451 99.3834 54.1935 101.16 54.1935C102.937 54.1935 103.466 55.6451 103.466 56.6687C103.466 57.6922 102.937 59.1439 101.16 59.1439ZM101.16 54.7704C100.121 54.7704 99.5157 55.552 99.5157 56.6687C99.5157 57.7853 100.139 58.5855 101.16 58.5855C102.181 58.5855 102.805 57.7853 102.805 56.6873C102.805 55.5893 102.181 54.789 101.16 54.789V54.7704Z" fill="#314419"/>
<path d="M105.394 58.4552H107.794V59.0136H104.751V54.3237H105.394V58.4552Z" fill="#314419"/>
<path d="M111.027 59.1439C109.25 59.1439 108.721 57.6922 108.721 56.6687C108.721 55.6451 109.25 54.1935 111.027 54.1935C112.803 54.1935 113.333 55.6451 113.333 56.6687C113.333 57.6922 112.803 59.1439 111.027 59.1439ZM111.027 54.7704C109.987 54.7704 109.382 55.552 109.382 56.6687C109.382 57.7853 110.006 58.5855 111.027 58.5855C112.047 58.5855 112.671 57.7853 112.671 56.6873C112.671 55.5893 112.047 54.789 111.027 54.789V54.7704Z" fill="#314419"/>
<path d="M116.678 56.5199H118.757V59.0323H118.341L118.19 58.4181C117.869 58.8648 117.264 59.1439 116.621 59.1439C114.958 59.1439 114.41 57.7667 114.41 56.6315C114.41 55.4963 115.109 54.2122 116.659 54.2122C117.548 54.2122 118.53 54.7146 118.663 55.7568H118.039C117.831 54.938 117.132 54.7705 116.621 54.7705C115.771 54.7705 115.071 55.4404 115.071 56.6687C115.071 57.6179 115.393 58.6042 116.659 58.6042C116.886 58.6042 117.283 58.5856 117.642 58.3065C118.058 57.9901 118.152 57.562 118.152 57.0596H116.678V56.5199Z" fill="#314419"/>
<path d="M120.572 54.3424L121.933 56.5943L123.294 54.3424H124.05L122.254 57.1526V59.0322H121.611V57.1526L119.816 54.3424H120.572Z" fill="#314419"/>
</g>
<defs>
<linearGradient id="paint0_linear_3_30654" x1="7.86291" y1="32.7544" x2="23.8028" y2="40.238" gradientUnits="userSpaceOnUse">
<stop offset="0.04" stop-color="#80A73E"/>
<stop offset="1" stop-color="#283816"/>
</linearGradient>
<linearGradient id="paint1_linear_3_30654" x1="6.55874" y1="24.4727" x2="23.6078" y2="24.4727" gradientUnits="userSpaceOnUse">
<stop stop-color="#394D1D"/>
<stop offset="0.69" stop-color="#7FA43D"/>
<stop offset="1" stop-color="#283816"/>
</linearGradient>
<linearGradient id="paint2_linear_3_30654" x1="8.65685" y1="23.7654" x2="14.9431" y2="25.0692" gradientUnits="userSpaceOnUse">
<stop stop-color="#232F12"/>
<stop offset="0.97" stop-color="#4C6D26"/>
<stop offset="1" stop-color="#283816"/>
</linearGradient>
<linearGradient id="paint3_linear_3_30654" x1="46.2706" y1="24.5658" x2="29.2215" y2="24.5658" gradientUnits="userSpaceOnUse">
<stop stop-color="#394D1D"/>
<stop offset="0.69" stop-color="#7FA43D"/>
<stop offset="1" stop-color="#283816"/>
</linearGradient>
<linearGradient id="paint4_linear_3_30654" x1="44.1725" y1="23.8585" x2="37.8862" y2="25.1623" gradientUnits="userSpaceOnUse">
<stop stop-color="#232F12"/>
<stop offset="0.97" stop-color="#4C6D26"/>
<stop offset="1" stop-color="#283816"/>
</linearGradient>
<linearGradient id="paint5_linear_3_30654" x1="7.86293" y1="39.6402" x2="23.8028" y2="47.1239" gradientUnits="userSpaceOnUse">
<stop offset="0.04" stop-color="#E2BD9C"/>
<stop offset="1" stop-color="#B17F56"/>
</linearGradient>
<linearGradient id="paint6_linear_3_30654" x1="45.0608" y1="39.8822" x2="29.1953" y2="47.2898" gradientUnits="userSpaceOnUse">
<stop offset="0.04" stop-color="#E2BD9C"/>
<stop offset="1" stop-color="#B17F56"/>
</linearGradient>
<linearGradient id="paint7_linear_3_30654" x1="45.0987" y1="32.531" x2="29.1588" y2="40.0146" gradientUnits="userSpaceOnUse">
<stop offset="0.04" stop-color="#80A73E"/>
<stop offset="1" stop-color="#283816"/>
</linearGradient>
<linearGradient id="paint8_linear_3_30654" x1="29.2026" y1="33.871" x2="31.7732" y2="33.871" gradientUnits="userSpaceOnUse">
<stop stop-color="#394D1D"/>
<stop offset="0.69" stop-color="#7FA43D"/>
<stop offset="1" stop-color="#283816"/>
</linearGradient>
<linearGradient id="paint9_linear_3_30654" x1="14.2894" y1="16.191" x2="16.86" y2="16.191" gradientUnits="userSpaceOnUse">
<stop stop-color="#394D1D"/>
<stop offset="0.69" stop-color="#7FA43D"/>
<stop offset="1" stop-color="#283816"/>
</linearGradient>
<linearGradient id="paint10_linear_3_30654" x1="21.1128" y1="34.9131" x2="22.3981" y2="34.9131" gradientUnits="userSpaceOnUse">
<stop stop-color="#394D1D"/>
<stop offset="0.69" stop-color="#7FA43D"/>
<stop offset="1" stop-color="#283816"/>
</linearGradient>
<linearGradient id="paint11_linear_3_30654" x1="35.0999" y1="15.335" x2="39.3905" y2="15.335" gradientUnits="userSpaceOnUse">
<stop stop-color="#394D1D"/>
<stop offset="0.69" stop-color="#7FA43D"/>
<stop offset="1" stop-color="#283816"/>
</linearGradient>
<clipPath id="clip0_3_30654">
<rect width="160" height="60" fill="white"/>
</clipPath>
</defs>
</svg>
