<svg width="160" height="60" viewBox="0 0 160 60" fill="none" xmlns="http://www.w3.org/2000/svg">
<g clip-path="url(#clip0_20_460)">
<path d="M27.6149 27.6924H25.29V57.8599H27.6149V27.6924Z" fill="white"/>
<path d="M6.57762 28.1763L23.6644 38.1701L23.5321 42.6552V43.1577L6.55872 33.4058C6.55872 28.9021 6.55872 32.8475 6.55872 28.1763H6.57762Z" fill="white"/>
<path d="M6.70993 28.9763L23.6455 38.9701C23.6455 38.9701 23.6455 38.9143 23.5321 43.1575L23.4754 42.8039L6.55872 33.4056C6.70993 29.2183 6.55872 33.2195 6.70993 28.9763Z" fill="white"/>
<path d="M23.5321 43.1576L6.55872 33.5732V32.8474L23.5699 42.3387V43.139L23.5321 43.1576Z" fill="white"/>
<path d="M30.6202 13.8648C32.3025 17.2891 31.3007 20.974 28.1253 23.1142C27.7283 23.3747 27.3125 23.6167 26.7455 23.9517C27.3125 20.7507 26.8211 17.8474 25.5547 15.0559H25.5358L25.8949 8.95166C25.8949 8.95166 25.8949 8.98888 25.9516 9.00749C27.7472 10.3474 29.5996 11.7804 30.6202 13.8276V13.8648Z" fill="white"/>
<path d="M25.5357 15.0745H25.5546C25.3278 17.9591 24.912 20.8623 24.6663 23.8586C23.4944 23.3561 22.6438 22.5931 21.8688 21.737C19.0336 18.6291 19.2416 14.3673 22.4359 11.371C23.3432 10.5149 24.8175 9.77052 25.8381 9.0261C25.8759 8.98888 25.8948 8.97027 25.9137 8.95166L25.5546 15.0559L25.5357 15.0745Z" fill="white"/>
<path d="M23.6078 26.9106C23.6078 26.9106 22.3603 26.6687 20.0921 25.8126C18.3721 25.1799 16.5765 24.6774 14.8186 24.1563C13.798 23.8585 12.7962 23.5608 11.7755 23.263C11.0951 23.0769 9.88537 22.9466 9.33723 22.5186C11.0951 23.8399 12.9285 25.0682 14.9131 26.0732C17.2947 27.2829 19.8653 28.4553 22.4737 29.1625C21.831 29.2556 21.2262 29.5347 20.6024 29.7208C20.2622 29.8139 19.922 29.9069 19.6007 30.0372H18.9958C18.4099 29.9069 17.805 29.9255 17.2191 29.9255C17.1057 29.9255 16.9734 29.9255 16.86 29.9255C16.8033 29.8697 16.7088 29.8511 16.6332 29.8325C15.2723 29.665 13.9114 29.4044 12.5883 29.0136C12.456 28.9764 12.3426 29.0136 12.248 29.0881C11.8133 28.9578 11.3786 28.8089 10.9439 28.6414C10.8304 28.5856 10.9439 28.66 10.8682 28.7531C9.48845 28.0273 7.84403 27.1526 6.57764 26.2593V18.8895C6.57764 18.8895 10.2823 18.629 16.1606 20.6017C22.0389 22.5744 23.6267 26.9106 23.6267 26.9106H23.6078Z" fill="white"/>
<path d="M27.199 27.7482L26.5375 29.9442L9.29944 22.5745L27.1801 27.7482H27.199Z" fill="white"/>
<path d="M6.55872 19.5968C6.55872 19.5968 8.08973 19.5782 8.20313 19.5782C9.0915 19.5782 9.97986 19.6526 10.8682 19.7643C14.1004 20.2109 17.3325 21.1042 19.9031 23.17C22.5871 25.3288 22.4737 26.3896 22.4737 26.3896L23.4943 26.6874C23.4943 26.6874 22.4548 22.3511 16.1039 20.3598C9.75305 18.3685 6.55872 18.871 6.55872 18.871V19.5968Z" fill="white"/>
<path d="M6.5588 18.8523C6.5588 18.8523 6.97463 19.8945 7.71178 20.9181C8.44893 21.9416 9.2995 22.5744 9.2995 22.5744L12.3993 24.6587L14.5919 25.9056C14.5919 25.9056 13.42 28.2319 12.2292 28.5855C11.0384 28.9205 10.3391 28.5483 10.3391 28.5483L6.521 26.2779V18.8709L6.5588 18.8523Z" fill="white"/>
<path d="M18.3343 27.6179C15.3857 26.3524 14.6107 25.9058 14.6107 25.9058C14.6107 25.9058 13.2687 27.711 11.5487 28.2507C10.9249 28.4554 10.5469 28.5484 10.339 28.5112C11.3597 28.9951 15.0265 30.6514 17.5026 30.5584C20.3945 30.4653 22.7194 29.237 22.7194 29.237C22.7194 29.237 21.4908 28.9579 18.3532 27.5993L18.3343 27.6179Z" fill="white"/>
<path d="M6.55872 18.4988V18.8524C6.55872 18.8524 8.97809 18.7222 11.3219 19.1688C13.6656 19.6155 16.4441 20.4529 16.4441 20.4529C16.4441 20.4529 14.5729 19.6899 12.4181 19.1502C10.1122 18.5733 6.55872 18.4802 6.55872 18.4802V18.4988Z" fill="white"/>
<path d="M29.2215 27.0222C29.2215 27.0222 30.469 26.7803 32.7372 25.9242C34.4572 25.2914 36.2528 24.789 38.0107 24.2679C39.0313 23.9701 40.0331 23.6723 41.0538 23.3746C41.7342 23.1885 42.9439 23.0582 43.4921 22.6302C41.7342 23.9515 39.9008 25.1798 37.9162 26.1847C35.5346 27.3944 32.9451 28.5669 30.3556 29.2741C30.9983 29.3671 31.6031 29.6463 32.2269 29.8324C32.5671 29.9254 32.9073 30.0185 33.2286 30.1488H33.8335C34.4194 30.0185 35.0243 30.0371 35.6102 30.0371C35.7236 30.0371 35.8559 30.0371 35.9693 30.0371C36.026 29.9813 36.1205 29.9627 36.1961 29.944C37.557 29.7766 38.9179 29.516 40.241 29.1252C40.3733 29.088 40.4867 29.1252 40.5813 29.1996C41.016 29.0694 41.4507 28.9205 41.8854 28.753C41.9989 28.6971 41.8854 28.7716 41.9611 28.8646C43.3409 28.1388 44.9853 27.2641 46.2517 26.3708V19.0011C46.2517 19.0011 42.547 18.7406 36.6687 20.7133C30.7904 22.686 29.2026 27.0222 29.2026 27.0222H29.2215Z" fill="white"/>
<path d="M25.6302 27.8597L26.2918 30.0558L43.5109 22.686L25.6302 27.8597Z" fill="white"/>
<path d="M46.2706 19.6898C46.2706 19.6898 44.7396 19.6712 44.6262 19.6712C43.7378 19.6712 42.8494 19.7456 41.9611 19.8573C38.7289 20.3039 35.4968 21.1972 32.9262 23.263C30.2422 25.4218 30.3556 26.4826 30.3556 26.4826L29.335 26.7804C29.335 26.7804 30.3745 22.4441 36.7254 20.4528C43.0762 18.4615 46.2706 18.964 46.2706 18.964V19.6898Z" fill="white"/>
<path d="M46.2705 18.9641C46.2705 18.9641 45.8547 20.0063 45.1175 21.0299C44.3804 22.0534 43.5298 22.6862 43.5298 22.6862L40.43 24.7706L38.2374 26.0175C38.2374 26.0175 39.4093 28.3438 40.6001 28.6974C41.7909 29.0324 42.4902 28.6601 42.4902 28.6601L46.3083 26.3897V18.9827L46.2705 18.9641Z" fill="white"/>
<path d="M34.495 27.7109C37.4436 26.4454 38.2185 25.9988 38.2185 25.9988C38.2185 25.9988 39.5605 27.804 41.2806 28.3437C41.9043 28.5484 42.2823 28.6415 42.4902 28.6042C41.4696 29.0881 37.8027 30.7444 35.3266 30.6514C32.4347 30.5583 30.1099 29.33 30.1099 29.33C30.1099 29.33 31.3385 29.0509 34.4761 27.6923L34.495 27.7109Z" fill="white"/>
<path d="M46.2705 18.6104V18.964C46.2705 18.964 43.8512 18.8337 41.5074 19.2804C39.1636 19.727 36.3851 20.5645 36.3851 20.5645C36.3851 20.5645 38.2564 19.8015 40.4111 19.2618C42.7171 18.6849 46.2705 18.5918 46.2705 18.5918V18.6104Z" fill="white"/>
<path d="M6.57764 35.062L23.6645 45.0558L23.5322 49.5409V50.0434L6.57764 40.2915C6.57764 35.7878 6.57764 39.7332 6.57764 35.062Z" fill="white"/>
<path d="M6.72885 35.8623L23.6645 45.8561C23.6645 45.8561 23.6645 45.8003 23.5511 50.0434L23.4944 49.6898L6.57764 40.2916C6.72885 36.1042 6.57764 40.1055 6.72885 35.8623Z" fill="white"/>
<path d="M23.5321 50.0433L6.55872 40.459V39.7332L23.5699 49.2245L23.5321 50.0247V50.0433Z" fill="white"/>
<path d="M46.3273 35.2668L29.335 45.2606L29.4673 49.7458V50.2482L46.3273 40.4964C46.3273 35.9927 46.3273 39.9381 46.3273 35.2668Z" fill="white"/>
<path d="M46.1949 36.0669L29.3727 46.0607C29.3727 46.0607 29.3727 46.0049 29.4861 50.248L29.5428 49.8944L46.365 40.5148C46.2138 36.3274 46.365 40.3287 46.2138 36.0855L46.1949 36.0669Z" fill="white"/>
<path d="M29.4673 50.2482L46.3462 40.6638V39.938L29.4484 49.4293L29.4862 50.2296L29.4673 50.2482Z" fill="white"/>
<path d="M46.3839 27.9714L29.2971 37.9652L29.4294 42.4503V42.9528L46.4028 33.201C46.4028 28.6972 46.4028 32.6427 46.4028 27.9714H46.3839Z" fill="white"/>
<path d="M46.2517 28.7532L29.316 38.747C29.316 38.747 29.316 38.6911 29.4294 42.9343L29.4862 42.5807L46.4029 33.2011C46.2517 29.0137 46.4029 33.015 46.2517 28.7718V28.7532Z" fill="white"/>
<path d="M29.4294 42.9342L46.4028 33.3498V32.624L29.3916 42.1153L29.4294 42.9156V42.9342Z" fill="white"/>
<path d="M30.4879 35.1365C31.2062 35.1365 31.7732 34.5596 31.7732 33.871C31.7732 33.1824 31.1873 32.6055 30.4879 32.6055C29.7886 32.6055 29.2026 33.1824 29.2026 33.871C29.2026 34.5596 29.7886 35.1365 30.4879 35.1365Z" fill="white"/>
<path d="M30.4878 34.299C30.7335 34.299 30.9226 34.1129 30.9226 33.8709C30.9226 33.629 30.7335 33.4429 30.4878 33.4429C30.2421 33.4429 30.0531 33.629 30.0531 33.8709C30.0531 34.1129 30.2421 34.299 30.4878 34.299Z" fill="white"/>
<path d="M15.5747 17.4566C16.293 17.4566 16.86 16.8796 16.86 16.191C16.86 15.5025 16.2741 14.9255 15.5747 14.9255C14.8754 14.9255 14.2894 15.5025 14.2894 16.191C14.2894 16.8796 14.8754 17.4566 15.5747 17.4566Z" fill="white"/>
<path d="M15.5747 16.619C15.8205 16.619 16.0095 16.4329 16.0095 16.191C16.0095 15.949 15.8205 15.7629 15.5747 15.7629C15.329 15.7629 15.14 15.949 15.14 16.191C15.14 16.4329 15.329 16.619 15.5747 16.619Z" fill="white"/>
<path d="M21.7554 35.5458C22.1146 35.5458 22.3981 35.2666 22.3981 34.913C22.3981 34.5594 22.1146 34.2803 21.7554 34.2803C21.3963 34.2803 21.1128 34.5594 21.1128 34.913C21.1128 35.2666 21.3963 35.5458 21.7554 35.5458Z" fill="white"/>
<path d="M33.153 32.3634C33.3987 32.3634 33.5877 32.1773 33.5877 31.9354C33.5877 31.6934 33.3987 31.5073 33.153 31.5073C32.9073 31.5073 32.7183 31.6934 32.7183 31.9354C32.7183 32.1773 32.9073 32.3634 33.153 32.3634Z" fill="white"/>
<path d="M37.2546 17.4567C38.4454 17.4567 39.3905 16.5076 39.3905 15.3537C39.3905 14.1999 38.4265 13.2507 37.2546 13.2507C36.0827 13.2507 35.1188 14.1999 35.1188 15.3537C35.1188 16.5076 36.0827 17.4567 37.2546 17.4567Z" fill="white"/>
<path d="M37.2546 16.0421C37.6516 16.0421 37.9729 15.7257 37.9729 15.3349C37.9729 14.9441 37.6516 14.6277 37.2546 14.6277C36.8577 14.6277 36.5364 14.9441 36.5364 15.3349C36.5364 15.7257 36.8577 16.0421 37.2546 16.0421Z" fill="white"/>
<path d="M26.3674 60L0 45V15L26.3674 0L52.7348 15V45L26.3674 60ZM3.04312 43.2692L26.3863 56.5385L49.7295 43.2692V16.7308L26.3674 3.46154L3.04312 16.7308V43.2692Z" fill="white"/>
<path d="M59.1802 15.6328H64.8884L82.6368 35.9368H82.7502V15.6328H88.723V43.5671H83.0148L65.2664 23.3003H65.153V43.5671H59.1802V15.6328Z" fill="white"/>
<path d="M106.66 15.6328H112.576L126.185 43.5671H119.835L116.602 36.9417H102.578L99.3455 43.5671H92.9946L106.66 15.6328ZM115.147 33.0708L109.609 21.2532H109.496L104.071 33.0708H115.147Z" fill="white"/>
<path d="M130.476 15.6328H136.184L153.933 35.9368H154.046V15.6328H160.019V43.5671H154.311L136.562 23.3003H136.449V43.5671H130.476V15.6328Z" fill="white"/>
<path d="M62.3367 48.0337H62.9605V52.7235H62.2422L59.8228 48.9456V52.7235H59.1991V48.0337H59.9551L62.3367 51.8116V48.0337Z" fill="white"/>
<path d="M65.1908 51.3463L64.6994 52.7235H64.0378L65.8335 48.0337H66.5517L68.2717 52.7235H67.5724L67.0999 51.3463H65.1908ZM66.8541 50.788L66.1548 48.7223L65.3987 50.788H66.873H66.8541Z" fill="white"/>
<path d="M70.8046 52.7235H70.1619V48.592H68.5553V48.0337H72.4301V48.592H70.8235V52.7235H70.8046Z" fill="white"/>
<path d="M74.1312 52.7235H73.4885V48.0337H74.1312V52.7235Z" fill="white"/>
<path d="M77.7036 52.8537C75.9268 52.8537 75.3976 51.4021 75.3976 50.3785C75.3976 49.3549 75.9268 47.9033 77.7036 47.9033C79.4803 47.9033 80.0095 49.3549 80.0095 50.3785C80.0095 51.4021 79.4803 52.8537 77.7036 52.8537ZM77.7036 48.4802C76.664 48.4802 76.0591 49.2619 76.0591 50.3785C76.0591 51.4951 76.6829 52.2954 77.7036 52.2954C78.7242 52.2954 79.348 51.4951 79.348 50.3971C79.348 49.2991 78.7242 48.4989 77.7036 48.4989V48.4802Z" fill="white"/>
<path d="M84.4513 48.0337H85.0751V52.7235H84.3568L81.9375 48.9456V52.7235H81.3137V48.0337H82.0698L84.4513 51.8116V48.0337Z" fill="white"/>
<path d="M87.3054 51.3463L86.814 52.7235H86.1525L87.9481 48.0337H88.6663L90.3864 52.7235H89.687L89.2145 51.3463H87.3054ZM88.9688 50.788L88.2694 48.7223L87.5134 50.788H88.9877H88.9688Z" fill="white"/>
<path d="M92.0875 52.1652H94.4879V52.7235H91.4448V48.0337H92.0875V52.1652Z" fill="white"/>
<path d="M98.684 51.3463L98.1926 52.7235H97.531L99.3266 48.0337H100.045L101.765 52.7235H101.066L100.593 51.3463H98.684ZM100.347 50.788L99.648 48.7223L98.8919 50.788H100.366H100.347Z" fill="white"/>
<path d="M105.942 49.4479C105.772 48.6291 105.073 48.4802 104.619 48.4802C103.768 48.4802 103.069 49.1129 103.069 50.3412C103.069 51.4392 103.466 52.2953 104.638 52.2953C105.054 52.2953 105.772 52.1092 105.999 51.0112H106.623C106.358 52.7792 104.903 52.8536 104.543 52.8536C103.466 52.8536 102.408 52.1651 102.408 50.3598C102.408 48.9268 103.239 47.9219 104.619 47.9219C105.848 47.9219 106.471 48.6663 106.566 49.4665H105.942V49.4479Z" fill="white"/>
<path d="M108.494 51.3463L108.002 52.7235H107.341L109.136 48.0337H109.855L111.575 52.7235H110.875L110.403 51.3463H108.494ZM110.157 50.788L109.458 48.7223L108.702 50.788H110.176H110.157Z" fill="white"/>
<path d="M112.633 48.0335H114.561C115.809 48.0335 116.565 48.964 116.565 50.304C116.565 51.3648 116.092 52.7047 114.542 52.7047H112.633V48.0149V48.0335ZM113.276 52.1836H114.523C115.355 52.1836 115.903 51.5323 115.903 50.3598C115.903 49.1873 115.355 48.5918 114.486 48.5918H113.276V52.2022V52.1836Z" fill="white"/>
<path d="M121.347 52.7235H117.831V48.0337H121.309V48.592H118.474V49.9692H121.082V50.5275H118.474V52.1466H121.347V52.7049V52.7235Z" fill="white"/>
<path d="M123.577 48.0337L124.938 51.9977L126.299 48.0337H127.206V52.7235H126.582V49.9506C126.582 49.8203 126.601 49.2061 126.601 48.7781L125.259 52.7235H124.617L123.275 48.7781H123.256C123.256 49.2061 123.275 49.8203 123.275 49.9506V52.7235H122.651V48.0337H123.558H123.577Z" fill="white"/>
<path d="M129.04 48.0337L130.401 50.2856L131.761 48.0337H132.517L130.722 50.8439V52.7235H130.079V50.8439L128.284 48.0337H129.04Z" fill="white"/>
<path d="M138.037 52.8537C136.26 52.8537 135.731 51.4021 135.731 50.3785C135.731 49.3549 136.26 47.9033 138.037 47.9033C139.813 47.9033 140.343 49.3549 140.343 50.3785C140.343 51.4021 139.813 52.8537 138.037 52.8537ZM138.037 48.4802C136.997 48.4802 136.392 49.2619 136.392 50.3785C136.392 51.4951 137.016 52.2954 138.037 52.2954C139.057 52.2954 139.681 51.4951 139.681 50.3971C139.681 49.2991 139.057 48.4989 138.037 48.4989V48.4802Z" fill="white"/>
<path d="M144.898 48.0337V48.592H142.252V49.9692H144.577V50.5275H142.252V52.7235H141.609V48.0337H144.898Z" fill="white"/>
<path d="M62.3367 54.3425H62.9605V59.0324H62.2422L59.8228 55.2544V59.0324H59.1991V54.3425H59.9551L62.3367 58.1204V54.3425Z" fill="white"/>
<path d="M68.1584 54.3425V57.376C68.1584 58.3252 67.5535 59.144 66.2493 59.144C64.9451 59.144 64.4159 58.3438 64.4159 57.4691V54.3425H65.0585V57.3016C65.0585 58.3066 65.7012 58.6043 66.2682 58.6043C66.8353 58.6043 67.5157 58.3252 67.5157 57.3202V54.3425H68.1584Z" fill="white"/>
<path d="M71.485 59.0324H70.8423V54.9008H69.2357V54.3425H73.1105V54.9008H71.5039V59.0324H71.485Z" fill="white"/>
<path d="M74.8116 59.0324H74.1689V54.3425H76.3615C77.1365 54.3425 77.9303 54.6217 77.9303 55.608C77.9303 56.2966 77.5712 56.5572 77.2688 56.7247C77.4767 56.8735 77.8547 56.948 77.8547 57.5994V58.4554C77.8547 58.716 77.9114 58.809 78.1193 58.9207V59.0324H77.3255C77.231 58.7346 77.2121 58.0274 77.2121 57.8599C77.2121 57.4691 77.1365 57.0224 76.3615 57.0224H74.8116V59.0324ZM74.8116 56.4827H76.3048C76.7773 56.4827 77.2688 56.3525 77.2688 55.6639C77.2688 54.9753 76.7395 54.8822 76.4182 54.8822H74.8116V56.4827Z" fill="white"/>
<path d="M79.9905 59.0324H79.3479V54.3425H79.9905V59.0324Z" fill="white"/>
<path d="M83.3173 59.0324H82.6746V54.9008H81.068V54.3425H84.9428V54.9008H83.3362V59.0324H83.3173Z" fill="white"/>
<path d="M86.6249 59.0324H85.9823V54.3425H86.6249V59.0324Z" fill="white"/>
<path d="M90.2162 59.144C88.4395 59.144 87.9103 57.6924 87.9103 56.6688C87.9103 55.6452 88.4395 54.1936 90.2162 54.1936C91.993 54.1936 92.5222 55.6452 92.5222 56.6688C92.5222 57.6924 91.993 59.144 90.2162 59.144ZM90.2162 54.7705C89.1767 54.7705 88.5718 55.5522 88.5718 56.6688C88.5718 57.7854 89.1956 58.5857 90.2162 58.5857C91.2369 58.5857 91.8607 57.7854 91.8607 56.6874C91.8607 55.5894 91.2369 54.7891 90.2162 54.7891V54.7705Z" fill="white"/>
<path d="M96.9451 54.3425H97.5689V59.0324H96.8506L94.4312 55.2544V59.0324H93.8075V54.3425H94.5635L96.9451 58.1204V54.3425Z" fill="white"/>
<path d="M101.16 59.144C99.3834 59.144 98.8541 57.6924 98.8541 56.6688C98.8541 55.6452 99.3834 54.1936 101.16 54.1936C102.937 54.1936 103.466 55.6452 103.466 56.6688C103.466 57.6924 102.937 59.144 101.16 59.144ZM101.16 54.7705C100.121 54.7705 99.5157 55.5522 99.5157 56.6688C99.5157 57.7854 100.139 58.5857 101.16 58.5857C102.181 58.5857 102.805 57.7854 102.805 56.6874C102.805 55.5894 102.181 54.7891 101.16 54.7891V54.7705Z" fill="white"/>
<path d="M105.394 58.4555H107.794V59.0138H104.751V54.324H105.394V58.4555Z" fill="white"/>
<path d="M111.027 59.144C109.25 59.144 108.721 57.6924 108.721 56.6688C108.721 55.6452 109.25 54.1936 111.027 54.1936C112.803 54.1936 113.333 55.6452 113.333 56.6688C113.333 57.6924 112.803 59.144 111.027 59.144ZM111.027 54.7705C109.987 54.7705 109.382 55.5522 109.382 56.6688C109.382 57.7854 110.006 58.5857 111.027 58.5857C112.047 58.5857 112.671 57.7854 112.671 56.6874C112.671 55.5894 112.047 54.7891 111.027 54.7891V54.7705Z" fill="white"/>
<path d="M116.678 56.5199H118.757V59.0323H118.341L118.19 58.4181C117.869 58.8648 117.264 59.1439 116.621 59.1439C114.958 59.1439 114.41 57.7667 114.41 56.6315C114.41 55.4963 115.109 54.2122 116.659 54.2122C117.548 54.2122 118.53 54.7146 118.663 55.7568H118.039C117.831 54.938 117.132 54.7705 116.621 54.7705C115.771 54.7705 115.071 55.4404 115.071 56.6687C115.071 57.6179 115.393 58.6042 116.659 58.6042C116.886 58.6042 117.283 58.5856 117.642 58.3065C118.058 57.9901 118.152 57.562 118.152 57.0596H116.678V56.5199Z" fill="white"/>
<path d="M120.572 54.3425L121.933 56.5944L123.294 54.3425H124.05L122.254 57.1527V59.0324H121.611V57.1527L119.816 54.3425H120.572Z" fill="white"/>
</g>
<defs>
<clipPath id="clip0_20_460">
<rect width="160" height="60" fill="white"/>
</clipPath>
</defs>
</svg>
